STARTFONT 2.1
FONT -HP-Dotum-Bold-R-Normal--48-480-75-75-C-240-KSC5636.1989-0
SIZE 48 75 75
FONTBOUNDINGBOX 24 48 0 -6

STARTPROPERTIES 23
FONTNAME_REGISTRY ""
FOUNDRY "HP"
FAMILY_NAME "Dotum"
WEIGHT_NAME "Bold"
SLANT "R"
SETWIDTH_NAME "Normal"
ADD_STYLE_NAME ""
PIXEL_SIZE 48
POINT_SIZE 480
RESOLUTION_X 75
RESOLUTION_Y 75
SPACING "C"
AVERAGE_WIDTH 240
CHARSET_REGISTRY "KSC5636.1989"
CHARSET_ENCODING "0"
COPYRIGHT "Copyright (c) 1994 Samsung Hewlett-Packard Company."
WEIGHT 200
X_HEIGHT 42
QUAD_WIDTH 24
_HP_ASXVERSION "@(#) ASX 3.00 $Revision: 13.9 $ dotB48a"
DEFAULT_CHAR 32
FONT_DESCENT 6
FONT_ASCENT 42
ENDPROPERTIES

CHARS 256

STARTCHAR CODE000
ENCODING 0
SWIDTH 451 0
DWIDTH 24 0
BBX 24 48 0 -6
BITMAP
000000
000000
000000
000000
000000
000000
000000
000000
000000
000000
000000
000000
000000
000000
000000
000000
000000
000000
000000
000000
000000
000000
000000
000000
000000
000000
000000
000000
000000
000000
000000
000000
000000
000000
000000
000000
000000
000000
000000
000000
000000
000000
000000
000000
000000
000000
000000
000000
ENDCHAR

STARTCHAR CODE001
ENCODING 1
SWIDTH 451 0
DWIDTH 24 0
BBX 24 48 0 -6
BITMAP
000000
000000
000000
00FF00
03FFC0
07C3E0
0F00F0
1E0078
1C0038
38001C
38001C
70000E
7381CE
67C3E6
E7C3E7
E7C3E7
E7C3E7
C381C3
C00003
C00003
C00003
C00003
CC0033
CC0033
EE0077
EE0077
E700E7
67C3E6
73FFCE
71FF8E
387E1C
38001C
1C0038
1E0078
0F00F0
07C3E0
03FFC0
00FF00
000000
000000
000000
000000
000000
000000
000000
000000
000000
000000
ENDCHAR

STARTCHAR CODE002
ENCODING 2
SWIDTH 451 0
DWIDTH 24 0
BBX 24 48 0 -6
BITMAP
000000
000000
000000
00FF00
03FFC0
07FFE0
0FFFF0
1FFFF8
1FFFF8
3FFFFC
3FFFFC
7FFFFE
7FFFFE
7EFF7E
FC7E3F
FC7E3F
FEFF7F
FFFFFF
FFFFFF
FFFFFF
FFFFFF
FFFFFF
FFFFFF
FFFFFF
FFFFFF
FFFFFF
FFFFFF
7FFFFE
7F7EFE
7FC3FE
3FFFFC
3FFFFC
1FFFF8
1FFFF8
0FFFF0
07FFE0
03FFC0
00FF00
000000
000000
000000
000000
000000
000000
000000
000000
000000
000000
ENDCHAR

STARTCHAR CODE003
ENCODING 3
SWIDTH 451 0
DWIDTH 24 0
BBX 24 48 0 -6
BITMAP
000000
000000
0F81F0
1FC3F8
3FE7FC
3FE7FC
7FFFFE
7FFFFE
7FFFFE
FFFFFF
FFFFFF
FFFFFF
FFFFFF
FFFFFF
FFFFFF
FFFFFF
FFFFFF
FFFFFF
FFFFFF
7FFFFE
7FFFFE
7FFFFE
3FFFFC
3FFFFC
3FFFFC
1FFFF8
1FFFF8
1FFFF8
0FFFF0
0FFFF0
07FFE0
07FFE0
03FFC0
03FFC0
01FF80
01FF80
00FF00
00FF00
007E00
007E00
003C00
003C00
001800
001800
000000
000000
000000
000000
ENDCHAR

STARTCHAR CODE004
ENCODING 4
SWIDTH 451 0
DWIDTH 24 0
BBX 24 48 0 -6
BITMAP
001800
003C00
003C00
007E00
007E00
00FF00
00FF00
01FF80
01FF80
03FFC0
03FFC0
07FFE0
07FFE0
0FFFF0
0FFFF0
1FFFF8
1FFFF8
3FFFFC
3FFFFC
7FFFFE
7FFFFE
FFFFFF
FFFFFF
7FFFFE
7FFFFE
3FFFFC
3FFFFC
1FFFF8
1FFFF8
0FFFF0
0FFFF0
07FFE0
07FFE0
03FFC0
03FFC0
01FF80
01FF80
00FF00
00FF00
007E00
007E00
003C00
003C00
001800
000000
000000
000000
000000
ENDCHAR

STARTCHAR CODE005
ENCODING 5
SWIDTH 451 0
DWIDTH 24 0
BBX 24 48 0 -6
BITMAP
000000
000000
003C00
00FF00
01FF80
03FFC0
03FFC0
07FFE0
07FFE0
07FFE0
07FFE0
07FFE0
07FFE0
07FFE0
03FFC0
03FFC0
07FFE0
1FFFF8
3FFFFC
3FFFFC
7FFFFE
7FFFFE
FFFFFF
FFFFFF
FFFFFF
FFFFFF
FFFFFF
FFFFFF
FFFFFF
FFFFFF
FFFFFF
7FFFFE
7FFFFE
3FFFFC
1FBDF8
003C00
003C00
003C00
003C00
007E00
007E00
00FF00
01FF80
01FF80
000000
000000
000000
000000
ENDCHAR

STARTCHAR CODE006
ENCODING 6
SWIDTH 451 0
DWIDTH 24 0
BBX 24 48 0 -6
BITMAP
000000
001800
001800
003C00
003C00
007E00
007E00
00FF00
00FF00
01FF80
01FF80
03FFC0
03FFC0
07FFE0
07FFE0
0FFFF0
0FFFF0
1FFFF8
1FFFF8
3FFFFC
3FFFFC
7FFFFE
7FFFFE
7FFFFE
FFFFFF
FFFFFF
FFFFFF
FFFFFF
FFFFFF
FFFFFF
FFFFFF
FFFFFF
FFFFFF
7FFFFE
7FFFFE
3FBDFC
1F3CF8
007E00
007E00
007E00
00FF00
00FF00
01FF80
01FF80
000000
000000
000000
000000
ENDCHAR

STARTCHAR CODE007
ENCODING 7
SWIDTH 451 0
DWIDTH 24 0
BBX 24 48 0 -6
BITMAP
000000
000000
000000
000000
000000
000000
000000
000000
000000
000000
000000
000000
000000
00FF00
03FFC0
07FFE0
0FFFF0
1FFFF8
1FFFF8
3FFFFC
3FFFFC
3FFFFC
3FFFFC
3FFFFC
3FFFFC
3FFFFC
3FFFFC
1FFFF8
1FFFF8
0FFFF0
07FFE0
03FFC0
00FF00
000000
000000
000000
000000
000000
000000
000000
000000
000000
000000
000000
000000
000000
000000
000000
ENDCHAR

STARTCHAR CODE008
ENCODING 8
SWIDTH 451 0
DWIDTH 24 0
BBX 24 48 0 -6
BITMAP
000000
000000
000000
000000
000000
FFFFFF
FFFFFF
FFFFFF
FFFFFF
FFFFFF
FFFFFF
FFFFFF
FFFFFF
FFC7FF
FF01FF
FE00FF
FE00FF
FC007F
FC007F
FC007F
F8003F
F8003F
F8003F
F8003F
F8003F
FC007F
FC007F
FC007F
FE00FF
FE00FF
FF01FF
FFC7FF
FFFFFF
FFFFFF
FFFFFF
FFFFFF
FFFFFF
FFFFFF
FFFFFF
FFFFFF
FFFFFF
000000
000000
000000
000000
000000
000000
000000
ENDCHAR

STARTCHAR CODE009
ENCODING 9
SWIDTH 451 0
DWIDTH 24 0
BBX 24 48 0 -6
BITMAP
000000
000000
000000
000000
000000
000000
000000
000000
000000
000000
000000
000000
000000
00FF00
03FFC0
07FFE0
0FC3F0
1F00F8
1E0078
3C003C
3C003C
38001C
38001C
38001C
38001C
3C003C
3C003C
1E0078
1F00F8
0FC3F0
07FFE0
03FFC0
00FF00
000000
000000
000000
000000
000000
000000
000000
000000
000000
000000
000000
000000
000000
000000
000000
ENDCHAR

STARTCHAR CODE010
ENCODING 10
SWIDTH 451 0
DWIDTH 24 0
BBX 24 48 0 -6
BITMAP
000000
000000
000000
000000
FFFFFF
FFFFFF
FFFFFF
FFFFFF
FFFFFF
FFFFFF
FFFFFF
FFFFFF
FFFFFF
FFFFFF
FFFFFF
FEFF7F
FFFFFF
FDFFBF
FDFFBF
FFFFFF
FBFFDF
FBFFDF
FBFFDF
FBFFDF
FBFFDF
FBFFDF
FFFFFF
FDFFBF
FDFFBF
FFFFFF
FEFF7F
FFFFFF
FFFFFF
FFFFFF
FFFFFF
FFFFFF
FFFFFF
FFFFFF
FFFFFF
FFFFFF
FFFFFF
FFFFFF
000000
000000
000000
000000
000000
000000
ENDCHAR

STARTCHAR CODE011
ENCODING 11
SWIDTH 451 0
DWIDTH 24 0
BBX 24 48 0 -6
BITMAP
000000
000000
000000
000003
00000F
00003F
0000FF
0003FF
000FFF
000FFF
00003F
00007F
000077
0000F7
0000E3
0001E3
0001C0
0003C0
000380
000780
000700
07FF00
1FFE00
3FFE00
7E3F00
780F00
F00780
F00780
E00380
E00380
E00380
F00780
F00780
780F00
7E3F00
3FFE00
1FFC00
07F000
000000
000000
000000
000000
000000
000000
000000
000000
000000
000000
ENDCHAR

STARTCHAR CODE012
ENCODING 12
SWIDTH 451 0
DWIDTH 24 0
BBX 24 48 0 -6
BITMAP
000000
000000
00FF00
03FFC0
07FFE0
0FC3F0
0F00F0
1E0078
1E0078
1C0038
1C0038
1C0038
1E0078
1E0078
0F00F0
0FC3F0
07FFE0
03FFC0
00FF00
001C00
001C00
001C00
001C00
001C00
001C00
FFFFFF
FFFFFF
FFFFFF
001C00
001C00
001C00
001C00
001C00
001C00
001C00
001C00
001C00
001C00
001C00
001C00
001C00
001C00
001C00
001C00
000000
000000
000000
000000
ENDCHAR

STARTCHAR CODE013
ENCODING 13
SWIDTH 451 0
DWIDTH 24 0
BBX 24 48 0 -6
BITMAP
000000
000000
000000
00E000
00F000
00F800
00FC00
00FE00
00FF00
00FF80
00FFC0
00FFE0
00EFF0
00E7F8
00E3FC
00E1FE
00E0FE
00E07F
00E03F
00E01F
00E01F
00E00F
00E00F
00E00F
00E00F
00E01E
00E01E
00E03C
00E03C
00E078
00E0F0
00E1E0
00E1C0
00E000
07E000
1FE000
3FE000
7FE000
7FC000
FFC000
FF8000
FF0000
7C0000
000000
000000
000000
000000
000000
ENDCHAR

STARTCHAR CODE014
ENCODING 14
SWIDTH 451 0
DWIDTH 24 0
BBX 24 48 0 -6
BITMAP
000000
000000
000007
00003F
0001FF
000FFF
007FFF
03FFFF
03FFF7
03FF87
03FC07
03E03F
0381FF
038FFF
03FFFF
03FFFF
03FFE7
03FF07
03F807
03C007
038007
038007
038007
038007
038007
038007
038007
038007
03800F
03803F
03807F
0380FF
0380FF
0781FE
1F81FE
3F81FC
7F81F8
7F80F0
FF0000
FF0000
FE0000
FC0000
780000
000000
000000
000000
000000
000000
ENDCHAR

STARTCHAR CODE015
ENCODING 15
SWIDTH 451 0
DWIDTH 24 0
BBX 24 48 0 -6
BITMAP
000000
001C00
001C00
001C00
001C00
001C00
601C06
F01C0F
F87E1F
7DFFBE
3FFFFC
1FE3F8
0F81F0
0F00F0
0F00F0
0E0070
0E0070
1E0078
1C0038
1C0038
1C0038
FC003F
FC003F
FC003F
1C0038
1C0038
1C0038
1E0078
0E0070
0E0070
0F0070
0F00F0
0781E0
0FE3F0
1FFFF8
3FFFFC
7C7E3E
F81C1F
F01C0F
601C06
001C00
001C00
001C00
001C00
001C00
000000
000000
000000
ENDCHAR

STARTCHAR CODE016
ENCODING 16
SWIDTH 451 0
DWIDTH 24 0
BBX 24 48 0 -6
BITMAP
000000
000000
000000
000000
C00000
E00000
F00000
FC0000
FE0000
FF0000
FF8000
FFE000
FFF000
FFF800
FFFC00
FFFF00
FFFF80
FFFFC0
FFFFE0
FFFFF8
FFFFFC
FFFFFE
FFFFFF
FFFFFF
FFFFFE
FFFFFC
FFFFF0
FFFFE0
FFFFC0
FFFF80
FFFF00
FFFC00
FFF800
FFF000
FFE000
FF8000
FF0000
FE0000
FC0000
F00000
E00000
C00000
000000
000000
000000
000000
000000
000000
ENDCHAR

STARTCHAR CODE017
ENCODING 17
SWIDTH 451 0
DWIDTH 24 0
BBX 24 48 0 -6
BITMAP
000000
000000
000000
000000
000003
000007
00000F
00003F
00007F
0000FF
0001FF
0007FF
000FFF
001FFF
003FFF
00FFFF
01FFFF
03FFFF
07FFFF
1FFFFF
3FFFFF
7FFFFF
FFFFFF
FFFFFF
7FFFFF
3FFFFF
0FFFFF
07FFFF
03FFFF
01FFFF
00FFFF
003FFF
001FFF
000FFF
0007FF
0001FF
0000FF
00007F
00003F
00000F
000007
000003
000000
000000
000000
000000
000000
000000
ENDCHAR

STARTCHAR CODE018
ENCODING 18
SWIDTH 451 0
DWIDTH 24 0
BBX 24 48 0 -6
BITMAP
000000
001800
003C00
007E00
00FF00
01FF80
03FFC0
07FFE0
0FBDF0
0E3C70
003C00
003C00
003C00
003C00
003C00
003C00
003C00
003C00
003C00
003C00
003C00
003C00
003C00
003C00
003C00
003C00
003C00
003C00
003C00
003C00
003C00
003C00
003C00
003C00
003C00
003C00
0E3C70
0FBDF0
07FFE0
03FFC0
01FF80
00FF00
007E00
003C00
001800
000000
000000
000000
ENDCHAR

STARTCHAR CODE019
ENCODING 19
SWIDTH 451 0
DWIDTH 24 0
BBX 24 48 0 -6
BITMAP
000000
000000
000000
000000
018180
03C3C0
03C3C0
03C3C0
03C3C0
03C3C0
03C3C0
03C3C0
03C3C0
03C3C0
03C3C0
03C3C0
03C3C0
03C3C0
03C3C0
03C3C0
03C3C0
03C3C0
03C3C0
03C3C0
03C3C0
018180
018180
018180
018180
000000
000000
000000
018180
03C3C0
03C3C0
03C3C0
03C3C0
018180
000000
000000
000000
000000
000000
000000
000000
000000
000000
000000
ENDCHAR

STARTCHAR CODE020
ENCODING 20
SWIDTH 451 0
DWIDTH 24 0
BBX 24 48 0 -6
BITMAP
000000
000000
03FFFF
0FFFFF
1FFFFF
3FFFFF
7F1E0F
7C1E0F
F81E0F
F81E0F
F01E0F
F01E0F
F01E0F
F01E0F
F81E0F
F81E0F
7C1E0F
7F1E0F
3FFE0F
1FFE0F
0FFE0F
03FE0F
001E0F
001E0F
001E0F
001E0F
001E0F
001E0F
001E0F
001E0F
001E0F
001E0F
001E0F
001E0F
001E0F
001E0F
001E0F
001E0F
001E0F
001E0F
001E0F
001E0F
001E0F
001E0F
000000
000000
000000
000000
ENDCHAR

STARTCHAR CODE021
ENCODING 21
SWIDTH 451 0
DWIDTH 24 0
BBX 24 48 0 -6
BITMAP
000000
00FF00
07FFC0
0FFFE0
1FFFF0
1F83F8
3E00F8
3E007C
3C007C
3C003C
3C003C
3C003C
3C0000
3EFE00
3FFF00
1FFF80
1FE780
0FFB80
03FF80
03FF80
03FFE0
03DFF0
01FFF8
01FFFC
00FE7C
00003E
00003E
78003E
78001E
7C001E
3C003E
3E003E
3F007C
1F80FC
0FF7F8
0FFFF8
07FFE0
01FFC0
000000
000000
000000
000000
000000
000000
000000
000000
000000
000000
ENDCHAR

STARTCHAR CODE022
ENCODING 22
SWIDTH 451 0
DWIDTH 24 0
BBX 24 48 0 -6
BITMAP
000000
000000
000000
000000
000000
000000
000000
000000
000000
000000
000000
000000
000000
FFFFFF
FFFFFF
FFFFFF
FFFFFF
FFFFFF
FFFFFF
FFFFFF
FFFFFF
FFFFFF
FFFFFF
FFFFFF
FFFFFF
FFFFFF
FFFFFF
FFFFFF
FFFFFF
FFFFFF
FFFFFF
FFFFFF
000000
000000
000000
000000
000000
000000
000000
000000
000000
000000
000000
000000
000000
000000
000000
000000
ENDCHAR

STARTCHAR CODE023
ENCODING 23
SWIDTH 451 0
DWIDTH 24 0
BBX 24 48 0 -6
BITMAP
000000
001800
003C00
007E00
00FF00
01FF80
03FFC0
07FFE0
0FBDF0
0E3C70
003C00
003C00
003C00
003C00
003C00
003C00
003C00
003C00
003C00
003C00
003C00
003C00
003C00
003C00
003C00
003C00
003C00
003C00
003C00
003C00
003C00
003C00
003C00
003C00
0E3C70
0FBDF0
07FFE0
03FFC0
01FF80
00FF00
007E00
003C00
FFFFFF
FFFFFF
FFFFFF
FFFFFF
000000
000000
ENDCHAR

STARTCHAR CODE024
ENCODING 24
SWIDTH 451 0
DWIDTH 24 0
BBX 24 48 0 -6
BITMAP
000000
001800
003C00
007E00
00FF00
01FF80
03FFC0
07FFE0
0FBDF0
0E3C70
003C00
003C00
003C00
003C00
003C00
003C00
003C00
003C00
003C00
003C00
003C00
003C00
003C00
003C00
003C00
003C00
003C00
003C00
003C00
003C00
003C00
003C00
003C00
003C00
003C00
003C00
003C00
003C00
003C00
003C00
003C00
003C00
003C00
003C00
003C00
000000
000000
000000
ENDCHAR

STARTCHAR CODE025
ENCODING 25
SWIDTH 451 0
DWIDTH 24 0
BBX 24 48 0 -6
BITMAP
000000
003C00
003C00
003C00
003C00
003C00
003C00
003C00
003C00
003C00
003C00
003C00
003C00
003C00
003C00
003C00
003C00
003C00
003C00
003C00
003C00
003C00
003C00
003C00
003C00
003C00
003C00
003C00
003C00
003C00
003C00
003C00
003C00
003C00
003C00
003C00
0E3C70
0FBDF0
07FFE0
03FFC0
01FF80
00FF00
007E00
003C00
001800
000000
000000
000000
ENDCHAR

STARTCHAR CODE026
ENCODING 26
SWIDTH 451 0
DWIDTH 24 0
BBX 24 48 0 -6
BITMAP
000000
000000
000000
000000
000000
000000
000000
000000
000000
000000
000000
000000
000000
000000
000000
000180
0001C0
0001E0
0000F0
0000F8
00007C
FFFFFE
FFFFFF
FFFFFF
FFFFFE
00007C
0000F8
0000F0
0001E0
0001C0
000180
000000
000000
000000
000000
000000
000000
000000
000000
000000
000000
000000
000000
000000
000000
000000
000000
000000
ENDCHAR

STARTCHAR CODE027
ENCODING 27
SWIDTH 451 0
DWIDTH 24 0
BBX 24 48 0 -6
BITMAP
000000
000000
000000
000000
000000
000000
000000
000000
000000
000000
000000
000000
000000
000000
000000
018000
038000
078000
0F0000
1F0000
3E0000
7FFFFF
FFFFFF
FFFFFF
7FFFFF
3E0000
1F0000
0F0000
078000
038000
018000
000000
000000
000000
000000
000000
000000
000000
000000
000000
000000
000000
000000
000000
000000
000000
000000
000000
ENDCHAR

STARTCHAR CODE028
ENCODING 28
SWIDTH 451 0
DWIDTH 24 0
BBX 24 48 0 -6
BITMAP
000000
000000
000000
000000
000000
000000
000000
000000
000000
000000
000000
F00000
F00000
F00000
F00000
F00000
F00000
F00000
F00000
F00000
F00000
F00000
F00000
F00000
F00000
F00000
F00000
F00000
F00000
F00000
F00000
F00000
FFFFFF
FFFFFF
FFFFFF
FFFFFF
000000
000000
000000
000000
000000
000000
000000
000000
000000
000000
000000
000000
ENDCHAR

STARTCHAR CODE029
ENCODING 29
SWIDTH 451 0
DWIDTH 24 0
BBX 24 48 0 -6
BITMAP
000000
000000
000000
000000
000000
000000
000000
000000
000000
000000
000000
000000
000000
000000
000000
000000
0300C0
0700E0
0F00F0
1E0078
3E007C
7FFFFE
FFFFFF
FFFFFF
7FFFFE
3E007C
1E0078
0F00F0
0700E0
0300C0
000000
000000
000000
000000
000000
000000
000000
000000
000000
000000
000000
000000
000000
000000
000000
000000
000000
000000
ENDCHAR

STARTCHAR CODE030
ENCODING 30
SWIDTH 451 0
DWIDTH 24 0
BBX 24 48 0 -6
BITMAP
000000
000000
000000
000000
000000
000000
000000
000000
001800
001800
003C00
003C00
007E00
007E00
00FF00
00FF00
00FF00
01FF80
01FF80
03FFC0
03FFC0
03FFC0
07FFE0
07FFE0
0FFFF0
0FFFF0
0FFFF0
1FFFF8
1FFFF8
3FFFFC
3FFFFC
3FFFFC
7FFFFE
7FFFFE
7FFFFE
FFFFFF
FFFFFF
000000
000000
000000
000000
000000
000000
000000
000000
000000
000000
000000
ENDCHAR

STARTCHAR CODE031
ENCODING 31
SWIDTH 451 0
DWIDTH 24 0
BBX 24 48 0 -6
BITMAP
000000
000000
000000
000000
000000
000000
000000
000000
FFFFFF
FFFFFF
7FFFFE
7FFFFE
7FFFFE
3FFFFC
3FFFFC
3FFFFC
1FFFF8
1FFFF8
0FFFF0
0FFFF0
0FFFF0
07FFE0
07FFE0
03FFC0
03FFC0
03FFC0
01FF80
01FF80
00FF00
00FF00
00FF00
007E00
007E00
003C00
003C00
001800
001800
000000
000000
000000
000000
000000
000000
000000
000000
000000
000000
000000
ENDCHAR

STARTCHAR CODE032
ENCODING 32
SWIDTH 451 0
DWIDTH 24 0
BBX 24 48 0 -6
BITMAP
000000
000000
000000
000000
000000
000000
000000
000000
000000
000000
000000
000000
000000
000000
000000
000000
000000
000000
000000
000000
000000
000000
000000
000000
000000
000000
000000
000000
000000
000000
000000
000000
000000
000000
000000
000000
000000
000000
000000
000000
000000
000000
000000
000000
000000
000000
000000
000000
ENDCHAR

STARTCHAR CODE033
ENCODING 33
SWIDTH 451 0
DWIDTH 24 0
BBX 24 48 0 -6
BITMAP
000000
000000
003E00
003E00
003E00
003E00
003E00
003E00
003E00
003E00
003E00
003E00
003E00
003E00
003E00
003E00
003E00
003E00
003E00
003E00
003E00
003E00
003E00
003E00
001C00
001C00
001C00
001C00
001C00
000000
000000
000000
003E00
003E00
003E00
003E00
003E00
000000
000000
000000
000000
000000
000000
000000
000000
000000
000000
000000
ENDCHAR

STARTCHAR CODE034
ENCODING 34
SWIDTH 451 0
DWIDTH 24 0
BBX 24 48 0 -6
BITMAP
000000
000000
01E3C0
01E3C0
01E3C0
01E3C0
01E3C0
01E3C0
01E3C0
01E3C0
01E3C0
01E3C0
01E3C0
01E3C0
000000
000000
000000
000000
000000
000000
000000
000000
000000
000000
000000
000000
000000
000000
000000
000000
000000
000000
000000
000000
000000
000000
000000
000000
000000
000000
000000
000000
000000
000000
000000
000000
000000
000000
ENDCHAR

STARTCHAR CODE035
ENCODING 35
SWIDTH 451 0
DWIDTH 24 0
BBX 24 48 0 -6
BITMAP
000000
000000
000000
000000
01E1E0
01E1E0
01E1E0
01E1E0
01E1E0
01E1E0
01E1E0
01E1E0
01E1E0
01E1E0
3FFFFE
3FFFFE
3FFFFE
3FFFFE
03C3C0
03C3C0
03C3C0
03C3C0
03C3C0
7FFFFC
7FFFFC
7FFFFC
7FFFFC
078780
078780
078780
078780
078780
078780
078780
078780
078780
000000
000000
000000
000000
000000
000000
000000
000000
000000
000000
000000
000000
ENDCHAR

STARTCHAR CODE036
ENCODING 36
SWIDTH 451 0
DWIDTH 24 0
BBX 24 48 0 -6
BITMAP
003C00
003C00
00FF00
03FFC0
07FFE0
0FFFF0
1FFFF8
1F3CF8
3E3C7C
3E3C7C
3C3C3C
3C3C3C
3E3C3C
3E3C00
3F3C00
1FBC00
1FFC00
0FFC00
07FC00
03FF00
01FFC0
007FE0
003FF0
003FF8
003DF8
003CFC
003C7C
3C3C7C
3C3C3C
3C3C3C
3E3C7C
3E3C7C
3F3CFC
1FFDF8
1FFFF8
0FFFF0
07FFE0
01FF80
003C00
003C00
003C00
003C00
003C00
000000
000000
000000
000000
000000
ENDCHAR

STARTCHAR CODE037
ENCODING 37
SWIDTH 451 0
DWIDTH 24 0
BBX 24 48 0 -6
BITMAP
000000
000000
0000E0
0E00E0
3F81E0
7FC1E0
7FC1E0
FBE3C0
F1E3C0
F1E3C0
F1E780
F1E780
F1E780
F1EF00
F1EF00
FBEF00
7FDE00
7FDE00
3F9E00
0E1C00
003C00
003C70
0039FC
007BFE
007BFE
00F7DF
00F78F
00F78F
01E78F
01E78F
01E78F
03C78F
03C7DF
03C3FE
0783FE
0781FC
078070
070000
070000
000000
000000
000000
000000
000000
000000
000000
000000
000000
ENDCHAR

STARTCHAR CODE038
ENCODING 38
SWIDTH 451 0
DWIDTH 24 0
BBX 24 48 0 -6
BITMAP
000000
000000
01F800
03FE00
07FF00
0FFF80
0F8F80
1F07C0
1E03C0
1E03C0
1E03C0
1E07C0
1F07C0
1F0F80
0F9F80
0FFF00
07FE00
03FC00
03F800
07F800
0FFC1E
1FFC1E
3F3E1E
3E1F1E
7C1F3E
7C0FBC
7807FC
7807FC
7803F8
7803F8
7801F8
7C03F8
7C07FC
3F0FFE
3FFFBF
1FFF1F
0FFE0F
03F800
000000
000000
000000
000000
000000
000000
000000
000000
000000
000000
ENDCHAR

STARTCHAR CODE039
ENCODING 39
SWIDTH 451 0
DWIDTH 24 0
BBX 24 48 0 -6
BITMAP
000000
000000
003C00
003C00
003C00
003C00
003C00
003C00
003C00
003C00
003C00
003C00
003C00
003C00
000000
000000
000000
000000
000000
000000
000000
000000
000000
000000
000000
000000
000000
000000
000000
000000
000000
000000
000000
000000
000000
000000
000000
000000
000000
000000
000000
000000
000000
000000
000000
000000
000000
000000
ENDCHAR

STARTCHAR CODE040
ENCODING 40
SWIDTH 451 0
DWIDTH 24 0
BBX 24 48 0 -6
BITMAP
000700
000700
000F00
000E00
001E00
001E00
003C00
003C00
003C00
007800
007800
007800
007800
00F800
00F000
00F000
00F000
00F000
00F000
00F000
00F000
00F000
00F000
00F000
00F000
00F000
00F000
00F000
00F000
00F000
00F000
00F000
00F800
007800
007800
007800
007800
003C00
003C00
003C00
001E00
001E00
000E00
000F00
000700
000700
000000
000000
ENDCHAR

STARTCHAR CODE041
ENCODING 41
SWIDTH 451 0
DWIDTH 24 0
BBX 24 48 0 -6
BITMAP
007000
007000
007800
003800
003C00
003C00
001E00
001E00
001E00
000F00
000F00
000F00
000F00
000F80
000780
000780
000780
000780
000780
000780
000780
000780
000780
000780
000780
000780
000780
000780
000780
000780
000780
000780
000F80
000F00
000F00
000F00
000F00
001E00
001E00
001E00
003C00
003C00
003800
007800
007000
007000
000000
000000
ENDCHAR

STARTCHAR CODE042
ENCODING 42
SWIDTH 451 0
DWIDTH 24 0
BBX 24 48 0 -6
BITMAP
000000
000000
000000
000000
000000
000000
000000
000000
000000
000000
000000
000000
000000
000000
000000
000000
000000
000000
000000
003C00
003C00
003C00
003C00
1E3C78
1FBDF8
1FFFF8
1FFFF8
03FFC0
00FF00
01FF80
03FFC0
07E7E0
07C3E0
0781E0
0300C0
000000
000000
000000
000000
000000
000000
000000
000000
000000
000000
000000
000000
000000
ENDCHAR

STARTCHAR CODE043
ENCODING 43
SWIDTH 451 0
DWIDTH 24 0
BBX 24 48 0 -6
BITMAP
000000
000000
000000
000000
000000
000000
000000
000000
000000
000000
000000
000000
000000
000000
000000
000000
003C00
003C00
003C00
003C00
003C00
003C00
003C00
003C00
3FFFFC
3FFFFC
3FFFFC
3FFFFC
003C00
003C00
003C00
003C00
003C00
003C00
003C00
003C00
000000
000000
000000
000000
000000
000000
000000
000000
000000
000000
000000
000000
ENDCHAR

STARTCHAR CODE044
ENCODING 44
SWIDTH 451 0
DWIDTH 24 0
BBX 24 48 0 -6
BITMAP
000000
000000
000000
000000
000000
000000
000000
000000
000000
000000
000000
000000
000000
000000
000000
000000
000000
000000
000000
000000
000000
000000
000000
000000
000000
000000
000000
000000
000000
000000
000000
000000
007E00
007E00
007E00
007E00
007E00
007E00
000E00
000E00
001E00
001C00
003C00
007800
007000
000000
000000
000000
ENDCHAR

STARTCHAR CODE045
ENCODING 45
SWIDTH 451 0
DWIDTH 24 0
BBX 24 48 0 -6
BITMAP
000000
000000
000000
000000
000000
000000
000000
000000
000000
000000
000000
000000
000000
000000
000000
000000
000000
000000
000000
000000
000000
000000
000000
000000
000000
3FFFFC
3FFFFC
3FFFFC
3FFFFC
000000
000000
000000
000000
000000
000000
000000
000000
000000
000000
000000
000000
000000
000000
000000
000000
000000
000000
000000
ENDCHAR

STARTCHAR CODE046
ENCODING 46
SWIDTH 451 0
DWIDTH 24 0
BBX 24 48 0 -6
BITMAP
000000
000000
000000
000000
000000
000000
000000
000000
000000
000000
000000
000000
000000
000000
000000
000000
000000
000000
000000
000000
000000
000000
000000
000000
000000
000000
000000
000000
000000
000000
000000
007E00
007E00
007E00
007E00
007E00
007E00
000000
000000
000000
000000
000000
000000
000000
000000
000000
000000
000000
ENDCHAR

STARTCHAR CODE047
ENCODING 47
SWIDTH 451 0
DWIDTH 24 0
BBX 24 48 0 -6
BITMAP
000000
000380
000780
000780
000780
000780
000700
000F00
000F00
000F00
000F00
000E00
001E00
001E00
001E00
001E00
001C00
003C00
003C00
003C00
003C00
003800
007800
007800
007800
007800
007000
00F000
00F000
00F000
00F000
00E000
01E000
01E000
01E000
01E000
01C000
01C000
000000
000000
000000
000000
000000
000000
000000
000000
000000
000000
ENDCHAR

STARTCHAR CODE048
ENCODING 48
SWIDTH 451 0
DWIDTH 24 0
BBX 24 48 0 -6
BITMAP
000000
000000
000000
007E00
01FF80
03FFC0
07FFE0
0FC3F0
0F81F0
1F00F8
1E0078
3E007C
3E003C
3C003C
3C003C
3C003C
7C003E
78001E
78001E
78001E
78001E
78001E
78001E
78001E
7C003E
3C003C
3C003C
3C003C
3E007C
3E007C
1E0078
1F00F8
0F81F0
0FC3F0
07FFE0
03FFC0
01FF80
007E00
000000
000000
000000
000000
000000
000000
000000
000000
000000
000000
ENDCHAR

STARTCHAR CODE049
ENCODING 49
SWIDTH 451 0
DWIDTH 24 0
BBX 24 48 0 -6
BITMAP
000000
000000
000000
000380
000380
000780
000780
000F80
003F80
01FF80
01FF80
01FF80
000780
000780
000780
000780
000780
000780
000780
000780
000780
000780
000780
000780
000780
000780
000780
000780
000780
000780
000780
000780
000780
000780
000780
000780
000780
000000
000000
000000
000000
000000
000000
000000
000000
000000
000000
000000
ENDCHAR

STARTCHAR CODE050
ENCODING 50
SWIDTH 451 0
DWIDTH 24 0
BBX 24 48 0 -6
BITMAP
000000
000000
000000
00FF80
03FFE0
07FFF0
0FFFF8
0FC1F8
1F007C
1E007C
3E003C
3C003C
3C003C
3C003C
3C003C
00007C
00007C
0000F8
0001F8
0003F0
0007E0
001FC0
007F80
00FF00
01FE00
03F800
07E000
0FC000
1F8000
1F0000
3E0000
3E0000
3C0000
3FFFFC
3FFFFC
3FFFFC
3FFFFC
000000
000000
000000
000000
000000
000000
000000
000000
000000
000000
000000
ENDCHAR

STARTCHAR CODE051
ENCODING 51
SWIDTH 451 0
DWIDTH 24 0
BBX 24 48 0 -6
BITMAP
000000
000000
000000
01FF80
07FFE0
0FFFF0
1FFFF0
1F83F8
3E00F8
3E00F8
3C0078
3C0078
3C0078
3C0078
0000F8
0000F8
0001F0
0007F0
007FE0
007FE0
007FF0
007FF8
0003F8
0000FC
00007C
00007C
00003C
78003C
78003C
78003C
7C003C
7C007C
3E007C
3F81F8
1FFFF8
0FFFF0
07FFE0
01FF80
000000
000000
000000
000000
000000
000000
000000
000000
000000
000000
ENDCHAR

STARTCHAR CODE052
ENCODING 52
SWIDTH 451 0
DWIDTH 24 0
BBX 24 48 0 -6
BITMAP
000000
000000
000000
0001C0
0003C0
0003C0
0007C0
000FC0
000FC0
001FC0
003FC0
003FC0
007FC0
00FFC0
00FBC0
01F3C0
03F3C0
03E3C0
07C3C0
0FC3C0
0F83C0
1F03C0
3F03C0
3E03C0
7C03C0
7FFFFE
7FFFFE
7FFFFE
7FFFFE
0003C0
0003C0
0003C0
0003C0
0003C0
0003C0
0003C0
0003C0
0003C0
000000
000000
000000
000000
000000
000000
000000
000000
000000
000000
ENDCHAR

STARTCHAR CODE053
ENCODING 53
SWIDTH 451 0
DWIDTH 24 0
BBX 24 48 0 -6
BITMAP
000000
000000
000000
1FFFF8
1FFFF8
1FFFF8
1FFFF8
1E0000
1E0000
1E0000
1E0000
1E0000
1E0000
1E0000
1E0000
1E3F00
1EFFC0
1FFFE0
1FFFF0
1FE3F8
1F80F8
1F007C
00007C
00003C
00003C
00003C
00003C
00003C
3C003C
3C003C
3C007C
3E007C
3E00F8
1F83F8
1FFFF0
0FFFE0
07FFC0
01FF00
000000
000000
000000
000000
000000
000000
000000
000000
000000
000000
ENDCHAR

STARTCHAR CODE054
ENCODING 54
SWIDTH 451 0
DWIDTH 24 0
BBX 24 48 0 -6
BITMAP
000000
000000
000000
007F80
01FFE0
03FFF0
07FFF8
0FE1F8
0F807C
1F007C
1F003C
1E003C
3E0000
3E0000
3C0000
3C7F00
3DFFC0
3FFFE0
3FFFF0
3FE3F8
3F80F8
3F007C
3E007C
3E003E
3C003E
3C001E
3C001E
3C001E
3C001E
3C001E
3E003E
3E003C
1F007C
1FC1F8
0FFFF8
07FFF0
03FFE0
00FF80
000000
000000
000000
000000
000000
000000
000000
000000
000000
000000
ENDCHAR

STARTCHAR CODE055
ENCODING 55
SWIDTH 451 0
DWIDTH 24 0
BBX 24 48 0 -6
BITMAP
000000
000000
000000
3FFFFC
3FFFFC
3FFFFC
3FFFFC
00007C
000078
0000F8
0000F0
0001F0
0001E0
0003E0
0003C0
0007C0
000780
000780
000F00
000F00
001F00
001E00
001E00
003E00
003C00
003C00
007C00
007800
007800
007800
00F800
00F000
00F000
01F000
01F000
01F000
01F000
000000
000000
000000
000000
000000
000000
000000
000000
000000
000000
000000
ENDCHAR

STARTCHAR CODE056
ENCODING 56
SWIDTH 451 0
DWIDTH 24 0
BBX 24 48 0 -6
BITMAP
000000
000000
000000
00FF00
03FFC0
07FFE0
0FFFF0
1FC3F8
1F00F8
3E007C
3E007C
3C003C
3C003C
3E007C
3E007C
1F00F8
1FC3F8
0FFFF0
07FFE0
07FFE0
0FFFF0
1FC3F8
3F00FC
3E007C
7C003E
7C003E
78001E
78001E
78001E
78001E
7C003E
7C003E
3E007C
3F81FC
1FFFF8
0FFFF0
07FFE0
01FF80
000000
000000
000000
000000
000000
000000
000000
000000
000000
000000
ENDCHAR

STARTCHAR CODE057
ENCODING 57
SWIDTH 451 0
DWIDTH 24 0
BBX 24 48 0 -6
BITMAP
000000
000000
000000
00FF00
03FFC0
07FFE0
0FFFF0
1FC3F8
1F00F8
3E007C
3E007C
3C003C
3C003C
3C003C
3C003C
3C003C
3C007C
3E007C
3E00FC
1F01FC
1FC7FC
0FFFFC
07FFFC
03FFBC
00FE3C
00003C
00003C
00003C
3C003C
3C003C
3E007C
3E007C
1F00F8
1FC3F8
0FFFF0
07FFE0
03FFC0
00FF00
000000
000000
000000
000000
000000
000000
000000
000000
000000
000000
ENDCHAR

STARTCHAR CODE058
ENCODING 58
SWIDTH 451 0
DWIDTH 24 0
BBX 24 48 0 -6
BITMAP
000000
000000
000000
000000
000000
000000
000000
000000
000000
000000
000000
000000
007E00
007E00
007E00
007E00
007E00
007E00
000000
000000
000000
000000
000000
000000
000000
000000
000000
000000
000000
000000
000000
007E00
007E00
007E00
007E00
007E00
007E00
000000
000000
000000
000000
000000
000000
000000
000000
000000
000000
000000
ENDCHAR

STARTCHAR CODE059
ENCODING 59
SWIDTH 451 0
DWIDTH 24 0
BBX 24 48 0 -6
BITMAP
000000
000000
000000
000000
000000
000000
000000
000000
000000
000000
000000
000000
007E00
007E00
007E00
007E00
007E00
007E00
000000
000000
000000
000000
000000
000000
000000
000000
000000
000000
000000
000000
000000
007E00
007E00
007E00
007E00
007E00
007E00
000E00
000E00
001E00
001C00
003C00
007800
007000
000000
000000
000000
000000
ENDCHAR

STARTCHAR CODE060
ENCODING 60
SWIDTH 451 0
DWIDTH 24 0
BBX 24 48 0 -6
BITMAP
000000
000000
000000
000000
000000
000000
000000
000000
000000
000000
000000
000000
000000
00000C
00003C
0000FC
0003FC
000FFC
003FF0
00FFC0
03FF00
0FFC00
3FF000
3FC000
3F0000
3F0000
3FC000
3FF000
0FFC00
03FF00
00FFC0
003FF0
000FFC
0003FC
0000FC
00003C
00000C
000000
000000
000000
000000
000000
000000
000000
000000
000000
000000
000000
ENDCHAR

STARTCHAR CODE061
ENCODING 61
SWIDTH 451 0
DWIDTH 24 0
BBX 24 48 0 -6
BITMAP
000000
000000
000000
000000
000000
000000
000000
000000
000000
000000
000000
000000
000000
000000
000000
000000
000000
000000
000000
3FFFFC
3FFFFC
3FFFFC
3FFFFC
000000
000000
000000
000000
000000
000000
3FFFFC
3FFFFC
3FFFFC
3FFFFC
000000
000000
000000
000000
000000
000000
000000
000000
000000
000000
000000
000000
000000
000000
000000
ENDCHAR

STARTCHAR CODE062
ENCODING 62
SWIDTH 451 0
DWIDTH 24 0
BBX 24 48 0 -6
BITMAP
000000
000000
000000
000000
000000
000000
000000
000000
000000
000000
000000
000000
000000
300000
3C0000
3F0000
3FC000
3FF000
0FFC00
03FF00
00FFC0
003FF0
000FFC
0003FC
0000FC
0000FC
0003FC
000FFC
003FF0
00FFC0
03FF00
0FFC00
3FF000
3FC000
3F0000
3C0000
300000
000000
000000
000000
000000
000000
000000
000000
000000
000000
000000
000000
ENDCHAR

STARTCHAR CODE063
ENCODING 63
SWIDTH 451 0
DWIDTH 24 0
BBX 24 48 0 -6
BITMAP
000000
000000
00FF80
03FFE0
07FFF0
0FFFF8
1FC3F8
1F00FC
3E007C
3E007C
3C003C
3C003C
3C007C
3C007C
0000F8
0000F8
0001F0
0003F0
0007E0
000FC0
000F80
001F00
001E00
003E00
003C00
003C00
003C00
003C00
003C00
000000
000000
000000
003C00
003C00
003C00
003C00
003C00
000000
000000
000000
000000
000000
000000
000000
000000
000000
000000
000000
ENDCHAR

STARTCHAR CODE064
ENCODING 64
SWIDTH 451 0
DWIDTH 24 0
BBX 24 48 0 -6
BITMAP
000000
000000
00FF80
03FFE0
07FFF0
0FC1F8
0F007C
1E003C
1C001E
1C001E
3C38EE
38FEEF
39FFEF
79FFE7
7BE7E7
73C3E7
7383C7
7781C7
7781CF
7703CF
7703CE
77038E
77038E
77879E
77879E
778FFC
7BDFFC
7BFFF8
39FDF8
3CF87E
3C001E
1E001E
1F003C
0F807C
07E1F8
03FFF0
01FFE0
007F80
000000
000000
000000
000000
000000
000000
000000
000000
000000
000000
ENDCHAR

STARTCHAR CODE065
ENCODING 65
SWIDTH 451 0
DWIDTH 24 0
BBX 24 48 0 -6
BITMAP
000000
000000
003C00
003C00
003C00
007E00
007E00
007E00
00FF00
00FF00
00FF00
01FF80
01E780
01E780
01E780
03E7C0
03C3C0
03C3C0
03C3C0
07C3E0
0781E0
0781E0
0F81F0
0FFFF0
0FFFF0
0FFFF0
1FFFF8
1E0078
1E0078
1E0078
3E007C
3C003C
3C003C
7C003E
78001E
78001E
78001E
000000
000000
000000
000000
000000
000000
000000
000000
000000
000000
000000
ENDCHAR

STARTCHAR CODE066
ENCODING 66
SWIDTH 451 0
DWIDTH 24 0
BBX 24 48 0 -6
BITMAP
000000
000000
7FFF00
7FFFC0
7FFFE0
7FFFF0
7807F0
7801F8
7800F8
7800F8
780078
780078
780078
7800F8
7800F8
7801F0
7807F0
7FFFE0
7FFFE0
7FFFF0
7FFFF8
7801FC
78007C
78003E
78003E
78001E
78001E
78001E
78001E
78003E
78003E
78007C
7801FC
7FFFF8
7FFFF0
7FFFE0
7FFF80
000000
000000
000000
000000
000000
000000
000000
000000
000000
000000
000000
ENDCHAR

STARTCHAR CODE067
ENCODING 67
SWIDTH 451 0
DWIDTH 24 0
BBX 24 48 0 -6
BITMAP
000000
007F80
01FFE0
03FFF0
07FFF8
0FF1FC
0FC07E
1F803E
1F001F
1F001F
3E000F
3E000F
3E000F
7C0000
7C0000
7C0000
780000
780000
780000
780000
780000
780000
780000
7C0000
7C0000
7C000F
3E000F
3E000F
3E001F
1F001F
1F003E
1F807E
0FC0FC
0FF3FC
07FFF8
03FFF0
01FFE0
007F80
000000
000000
000000
000000
000000
000000
000000
000000
000000
000000
ENDCHAR

STARTCHAR CODE068
ENCODING 68
SWIDTH 451 0
DWIDTH 24 0
BBX 24 48 0 -6
BITMAP
000000
000000
7FFE00
7FFF80
7FFFC0
7FFFE0
780FF0
7803F8
7801F8
7800FC
78007C
78007C
78003E
78003E
78003E
78001E
78001E
78001E
78001E
78001E
78001E
78001E
78001E
78001E
78003E
78003E
78003E
78007C
78007C
7800FC
7801F8
7803F8
780FF0
7FFFE0
7FFFC0
7FFF80
7FFE00
000000
000000
000000
000000
000000
000000
000000
000000
000000
000000
000000
ENDCHAR

STARTCHAR CODE069
ENCODING 69
SWIDTH 451 0
DWIDTH 24 0
BBX 24 48 0 -6
BITMAP
000000
000000
3FFFFC
3FFFFC
3FFFFC
3FFFFC
3C0000
3C0000
3C0000
3C0000
3C0000
3C0000
3C0000
3C0000
3C0000
3C0000
3C0000
3FFFF8
3FFFF8
3FFFF8
3FFFF8
3C0000
3C0000
3C0000
3C0000
3C0000
3C0000
3C0000
3C0000
3C0000
3C0000
3C0000
3C0000
3FFFFC
3FFFFC
3FFFFC
3FFFFC
000000
000000
000000
000000
000000
000000
000000
000000
000000
000000
000000
ENDCHAR

STARTCHAR CODE070
ENCODING 70
SWIDTH 451 0
DWIDTH 24 0
BBX 24 48 0 -6
BITMAP
000000
000000
3FFFFC
3FFFFC
3FFFFC
3FFFFC
3C0000
3C0000
3C0000
3C0000
3C0000
3C0000
3C0000
3C0000
3C0000
3C0000
3C0000
3FFFF8
3FFFF8
3FFFF8
3FFFF8
3C0000
3C0000
3C0000
3C0000
3C0000
3C0000
3C0000
3C0000
3C0000
3C0000
3C0000
3C0000
3C0000
3C0000
3C0000
3C0000
000000
000000
000000
000000
000000
000000
000000
000000
000000
000000
000000
ENDCHAR

STARTCHAR CODE071
ENCODING 71
SWIDTH 451 0
DWIDTH 24 0
BBX 24 48 0 -6
BITMAP
000000
007F00
01FFC0
03FFE0
07FFF0
0FE3F8
1F80F8
1F007C
3E003C
3E003E
7C001E
7C001E
78001E
F80000
F80000
F00000
F00000
F00000
F00000
F00FFE
F00FFE
F00FFE
F00FFE
F0001E
F8001E
F8001E
78001E
78001E
7C001E
7C003E
3E003E
3E007E
1F00FE
1FC3FE
0FFFFE
07FFFE
03FFDE
00FF00
000000
000000
000000
000000
000000
000000
000000
000000
000000
000000
ENDCHAR

STARTCHAR CODE072
ENCODING 72
SWIDTH 451 0
DWIDTH 24 0
BBX 24 48 0 -6
BITMAP
000000
000000
78001E
78001E
78001E
78001E
78001E
78001E
78001E
78001E
78001E
78001E
78001E
78001E
78001E
78001E
78001E
7FFFFE
7FFFFE
7FFFFE
7FFFFE
78001E
78001E
78001E
78001E
78001E
78001E
78001E
78001E
78001E
78001E
78001E
78001E
78001E
78001E
78001E
78001E
000000
000000
000000
000000
000000
000000
000000
000000
000000
000000
000000
ENDCHAR

STARTCHAR CODE073
ENCODING 73
SWIDTH 451 0
DWIDTH 24 0
BBX 24 48 0 -6
BITMAP
000000
000000
003C00
003C00
003C00
003C00
003C00
003C00
003C00
003C00
003C00
003C00
003C00
003C00
003C00
003C00
003C00
003C00
003C00
003C00
003C00
003C00
003C00
003C00
003C00
003C00
003C00
003C00
003C00
003C00
003C00
003C00
003C00
003C00
003C00
003C00
003C00
000000
000000
000000
000000
000000
000000
000000
000000
000000
000000
000000
ENDCHAR

STARTCHAR CODE074
ENCODING 74
SWIDTH 451 0
DWIDTH 24 0
BBX 24 48 0 -6
BITMAP
000000
000000
0000F0
0000F0
0000F0
0000F0
0000F0
0000F0
0000F0
0000F0
0000F0
0000F0
0000F0
0000F0
0000F0
0000F0
0000F0
0000F0
0000F0
0000F0
0000F0
0000F0
0000F0
0000F0
0000F0
0000F0
0000F0
1E00F0
1E00F0
1E00F0
1F00F0
1F01F0
1F81F0
0FE3E0
0FFFE0
07FFC0
03FF80
00FE00
000000
000000
000000
000000
000000
000000
000000
000000
000000
000000
ENDCHAR

STARTCHAR CODE075
ENCODING 75
SWIDTH 451 0
DWIDTH 24 0
BBX 24 48 0 -6
BITMAP
000000
000000
78003E
78007E
7800FC
7801F8
7803F0
7803E0
7807C0
780FC0
781F80
783F00
783E00
787C00
78FC00
79F800
7BF000
7FE000
7FF000
7FF800
7FF800
7EFC00
7C7E00
783E00
783F00
781F80
780F80
780FC0
7807E0
7803E0
7803F0
7801F8
7800F8
7800FC
78007E
78003E
78003E
000000
000000
000000
000000
000000
000000
000000
000000
000000
000000
000000
ENDCHAR

STARTCHAR CODE076
ENCODING 76
SWIDTH 451 0
DWIDTH 24 0
BBX 24 48 0 -6
BITMAP
000000
000000
3C0000
3C0000
3C0000
3C0000
3C0000
3C0000
3C0000
3C0000
3C0000
3C0000
3C0000
3C0000
3C0000
3C0000
3C0000
3C0000
3C0000
3C0000
3C0000
3C0000
3C0000
3C0000
3C0000
3C0000
3C0000
3C0000
3C0000
3C0000
3C0000
3C0000
3C0000
3FFFFC
3FFFFC
3FFFFC
3FFFFC
000000
000000
000000
000000
000000
000000
000000
000000
000000
000000
000000
ENDCHAR

STARTCHAR CODE077
ENCODING 77
SWIDTH 451 0
DWIDTH 24 0
BBX 24 48 0 -6
BITMAP
000000
000000
FC003F
FC003F
FC003F
FE007F
FE007F
FE007F
FE007F
FF00FF
FF00FF
FF00FF
FF00FF
FF81FF
F781EF
F781EF
F781EF
F7C3EF
F3C3CF
F3C3CF
F3C3CF
F3E7CF
F1E78F
F1E78F
F1E78F
F1E78F
F0FF0F
F0FF0F
F0FF0F
F0FF0F
F07E0F
F07E0F
F07E0F
F07E0F
F03C0F
F03C0F
F03C0F
000000
000000
000000
000000
000000
000000
000000
000000
000000
000000
000000
ENDCHAR

STARTCHAR CODE078
ENCODING 78
SWIDTH 451 0
DWIDTH 24 0
BBX 24 48 0 -6
BITMAP
000000
000000
7C001E
7E001E
7E001E
7F001E
7F001E
7F801E
7F801E
7FC01E
7FC01E
7BE01E
7BE01E
79F01E
79F01E
78F81E
78F81E
787C1E
787C1E
783E1E
783E1E
781F1E
781F1E
780F9E
780F9E
7807DE
7807DE
7803FE
7803FE
7801FE
7801FE
7800FE
7800FE
78007E
78007E
78003E
78003E
000000
000000
000000
000000
000000
000000
000000
000000
000000
000000
000000
ENDCHAR

STARTCHAR CODE079
ENCODING 79
SWIDTH 451 0
DWIDTH 24 0
BBX 24 48 0 -6
BITMAP
000000
00FF00
03FFC0
07FFE0
0FFFF0
1FC3F8
1F00F8
3E007C
3E007C
3C003C
7C003E
7C003E
78001E
78001E
78001E
F8001F
F8001F
F0000F
F0000F
F0000F
F0000F
F0000F
F8001F
F8001F
78001E
78001E
78001E
7C003E
7C003E
3C003C
3E007C
3E007C
1F00F8
1FC3F8
0FFFF0
07FFE0
03FFC0
00FF00
000000
000000
000000
000000
000000
000000
000000
000000
000000
000000
ENDCHAR

STARTCHAR CODE080
ENCODING 80
SWIDTH 451 0
DWIDTH 24 0
BBX 24 48 0 -6
BITMAP
000000
000000
7FFF80
7FFFE0
7FFFF0
7FFFF8
7801FC
78007C
78003E
78003E
78001E
78001E
78001E
78001E
78001E
78003E
78003E
78007C
7801FC
7FFFF8
7FFFF0
7FFFE0
7FFF80
780000
780000
780000
780000
780000
780000
780000
780000
780000
780000
780000
780000
780000
780000
000000
000000
000000
000000
000000
000000
000000
000000
000000
000000
000000
ENDCHAR

STARTCHAR CODE081
ENCODING 81
SWIDTH 451 0
DWIDTH 24 0
BBX 24 48 0 -6
BITMAP
000000
00FF00
03FFC0
07FFE0
0FFFF0
1FC3F8
1F00F8
3E007C
3E007C
3C003C
7C003E
7C003E
78001E
78001E
78001E
F8001F
F8001F
F0000F
F0000F
F0000F
F0000F
F0000F
F8001F
F8001F
78001E
78001E
78001E
7C063E
7C0F3E
3C0FBC
3E0FFC
3E07FC
1F03F8
1FC3F8
0FFFFC
07FFFE
03FFFE
00FF1E
00000C
000000
000000
000000
000000
000000
000000
000000
000000
000000
ENDCHAR

STARTCHAR CODE082
ENCODING 82
SWIDTH 451 0
DWIDTH 24 0
BBX 24 48 0 -6
BITMAP
000000
000000
7FFF00
7FFFC0
7FFFE0
7FFFF0
7803F8
7800F8
78007C
78007C
78003C
78003C
78003C
78003C
78007C
78007C
7800F8
7803F8
7FFFF0
7FFFE0
7FFFE0
7FFFF0
7803F8
7800F8
78007C
78007C
78003C
78003C
78003C
78003C
78003C
78003C
78003C
78003C
78003C
78003E
78003E
000000
000000
000000
000000
000000
000000
000000
000000
000000
000000
000000
ENDCHAR

STARTCHAR CODE083
ENCODING 83
SWIDTH 451 0
DWIDTH 24 0
BBX 24 48 0 -6
BITMAP
000000
000000
00FF00
03FFC0
07FFE0
0FFFF0
1FC3F8
1F00F8
3E007C
3E007C
3C003C
3C003C
3E003C
3E0000
3F0000
1F8000
1FC000
0FF000
07FC00
03FF00
01FFC0
007FE0
001FF0
0007F8
0001F8
0000FC
00007C
3C007C
3C003C
3C003C
3E007C
3E007C
3F00FC
1FC3F8
1FFFF8
0FFFF0
03FFC0
00FF00
000000
000000
000000
000000
000000
000000
000000
000000
000000
000000
ENDCHAR

STARTCHAR CODE084
ENCODING 84
SWIDTH 451 0
DWIDTH 24 0
BBX 24 48 0 -6
BITMAP
000000
000000
7FFFFE
7FFFFE
7FFFFE
7FFFFE
003C00
003C00
003C00
003C00
003C00
003C00
003C00
003C00
003C00
003C00
003C00
003C00
003C00
003C00
003C00
003C00
003C00
003C00
003C00
003C00
003C00
003C00
003C00
003C00
003C00
003C00
003C00
003C00
003C00
003C00
003C00
000000
000000
000000
000000
000000
000000
000000
000000
000000
000000
000000
ENDCHAR

STARTCHAR CODE085
ENCODING 85
SWIDTH 451 0
DWIDTH 24 0
BBX 24 48 0 -6
BITMAP
000000
000000
3C003C
3C003C
3C003C
3C003C
3C003C
3C003C
3C003C
3C003C
3C003C
3C003C
3C003C
3C003C
3C003C
3C003C
3C003C
3C003C
3C003C
3C003C
3C003C
3C003C
3C003C
3C003C
3C003C
3C003C
3C003C
3C003C
3C003C
3E007C
3E007C
3F00FC
1FC3F8
1FFFF8
0FFFF0
07FFE0
01FF80
000000
000000
000000
000000
000000
000000
000000
000000
000000
000000
000000
ENDCHAR

STARTCHAR CODE086
ENCODING 86
SWIDTH 451 0
DWIDTH 24 0
BBX 24 48 0 -6
BITMAP
000000
000000
78001E
78001E
78001E
7C003E
7C003E
3C003C
3C003C
3E007C
1E0078
1E0078
1E0078
1F00F8
0F00F0
0F00F0
0F00F0
0F81F0
0781E0
0781E0
07C3E0
03C3C0
03C3C0
03C3C0
03E7C0
01E780
01E780
01E780
01FF80
00FF00
00FF00
00FF00
007E00
007E00
007E00
003C00
003C00
000000
000000
000000
000000
000000
000000
000000
000000
000000
000000
000000
ENDCHAR

STARTCHAR CODE087
ENCODING 87
SWIDTH 451 0
DWIDTH 24 0
BBX 24 48 0 -6
BITMAP
000000
000000
F03C0F
F03C0F
F03C0F
F03C0F
F07E0F
F07E0F
F07E0F
787E1E
787E1E
787E1E
78FF1E
78FF1E
78FF1E
38FF1C
38E71C
3CE79C
3DE7BC
3DE7BC
3DE7BC
3DE7BC
1DC3B8
1FC3F8
1FC3F8
1FC3F8
1FC3F8
1FC3F8
0FC1F8
0FC1F0
0F81F0
0F81F0
0F81F0
0780F0
0780F0
0780F0
0780F0
000000
000000
000000
000000
000000
000000
000000
000000
000000
000000
000000
ENDCHAR

STARTCHAR CODE088
ENCODING 88
SWIDTH 451 0
DWIDTH 24 0
BBX 24 48 0 -6
BITMAP
000000
000000
3C003C
3C003C
3E007C
3E007C
1F00F8
1F00F8
0F81F0
0F81F0
07C3E0
07C3E0
03E7C0
03E7C0
01FF80
01FF80
00FF00
00FF00
007E00
007E00
007E00
007E00
00FF00
00FF00
01FF80
01FF80
03E7C0
03E7C0
07C3E0
07C3E0
0F81F0
0F81F0
1F00F8
1F00F8
3E007C
3E007C
3C003C
000000
000000
000000
000000
000000
000000
000000
000000
000000
000000
000000
ENDCHAR

STARTCHAR CODE089
ENCODING 89
SWIDTH 451 0
DWIDTH 24 0
BBX 24 48 0 -6
BITMAP
000000
000000
78001E
78001E
7C003E
7C003E
3E007C
3E007C
1F00F8
1F00F8
0F81F0
0F81F0
07C3E0
07C3E0
03E7C0
03E7C0
01FF80
01FF80
00FF00
00FF00
007E00
007E00
003C00
003C00
003C00
003C00
003C00
003C00
003C00
003C00
003C00
003C00
003C00
003C00
003C00
003C00
003C00
000000
000000
000000
000000
000000
000000
000000
000000
000000
000000
000000
ENDCHAR

STARTCHAR CODE090
ENCODING 90
SWIDTH 451 0
DWIDTH 24 0
BBX 24 48 0 -6
BITMAP
000000
000000
3FFFFE
3FFFFE
3FFFFE
3FFFFE
00003E
00007E
00007C
0000F8
0001F8
0001F0
0003E0
0007E0
0007C0
000F80
001F80
001F00
003E00
007E00
007C00
00F800
01F800
01F000
03E000
07E000
07C000
0F8000
1F8000
1F0000
3E0000
7E0000
7C0000
7FFFFE
7FFFFE
7FFFFE
7FFFFE
000000
000000
000000
000000
000000
000000
000000
000000
000000
000000
000000
ENDCHAR

STARTCHAR CODE091
ENCODING 91
SWIDTH 451 0
DWIDTH 24 0
BBX 24 48 0 -6
BITMAP
000000
000000
03FFC0
03FFC0
03FFC0
03FFC0
03C000
03C000
03C000
03C000
03C000
03C000
03C000
03C000
03C000
03C000
03C000
03C000
03C000
03C000
03C000
03C000
03C000
03C000
03C000
03C000
03C000
03C000
03C000
03C000
03C000
03C000
03C000
03C000
03C000
03C000
03C000
03C000
03C000
03C000
03C000
03C000
03C000
03FFC0
03FFC0
03FFC0
03FFC0
000000
ENDCHAR

STARTCHAR CODE092
ENCODING 92
SWIDTH 451 0
DWIDTH 24 0
BBX 24 48 0 -6
BITMAP
000000
000000
F03C0F
F03C0F
F03C0F
F03C0F
F07E0F
F07E0F
F07E0F
787E1E
787E1E
787E1E
78FF1E
FFFFFF
FFFFFF
FFFFFF
38E71C
3CE79C
3DE7BC
3DE7BC
3DE7BC
3DE7BC
1DC3B8
FFFFFF
FFFFFF
FFFFFF
1FC3F8
1FC3F8
0FC1F8
0FC1F0
0F81F0
0F81F0
0F81F0
0780F0
0780F0
0780F0
0780F0
000000
000000
000000
000000
000000
000000
000000
000000
000000
000000
000000
ENDCHAR

STARTCHAR CODE093
ENCODING 93
SWIDTH 451 0
DWIDTH 24 0
BBX 24 48 0 -6
BITMAP
000000
000000
03FFC0
03FFC0
03FFC0
03FFC0
0003C0
0003C0
0003C0
0003C0
0003C0
0003C0
0003C0
0003C0
0003C0
0003C0
0003C0
0003C0
0003C0
0003C0
0003C0
0003C0
0003C0
0003C0
0003C0
0003C0
0003C0
0003C0
0003C0
0003C0
0003C0
0003C0
0003C0
0003C0
0003C0
0003C0
0003C0
0003C0
0003C0
0003C0
0003C0
0003C0
0003C0
03FFC0
03FFC0
03FFC0
03FFC0
000000
ENDCHAR

STARTCHAR CODE094
ENCODING 94
SWIDTH 451 0
DWIDTH 24 0
BBX 24 48 0 -6
BITMAP
000000
000000
000000
003C00
003C00
007E00
007E00
00FF00
00FF00
01FF80
01E780
03E7C0
03C3C0
07C3E0
0781E0
0F81F0
0F00F0
1F00F8
1E0078
000000
000000
000000
000000
000000
000000
000000
000000
000000
000000
000000
000000
000000
000000
000000
000000
000000
000000
000000
000000
000000
000000
000000
000000
000000
000000
000000
000000
000000
ENDCHAR

STARTCHAR CODE095
ENCODING 95
SWIDTH 451 0
DWIDTH 24 0
BBX 24 48 0 -6
BITMAP
000000
000000
000000
000000
000000
000000
000000
000000
000000
000000
000000
000000
000000
000000
000000
000000
000000
000000
000000
000000
000000
000000
000000
000000
000000
000000
000000
000000
000000
000000
000000
000000
000000
000000
000000
000000
000000
000000
000000
7FFFFE
7FFFFE
7FFFFE
7FFFFE
000000
000000
000000
000000
000000
ENDCHAR

STARTCHAR CODE096
ENCODING 96
SWIDTH 451 0
DWIDTH 24 0
BBX 24 48 0 -6
BITMAP
000000
000000
00FC00
00FE00
007E00
003F00
001F00
000F80
000780
000380
000000
000000
000000
000000
000000
000000
000000
000000
000000
000000
000000
000000
000000
000000
000000
000000
000000
000000
000000
000000
000000
000000
000000
000000
000000
000000
000000
000000
000000
000000
000000
000000
000000
000000
000000
000000
000000
000000
ENDCHAR

STARTCHAR CODE097
ENCODING 97
SWIDTH 451 0
DWIDTH 24 0
BBX 24 48 0 -6
BITMAP
000000
000000
000000
000000
000000
000000
000000
000000
000000
000000
000000
00FE00
03FF80
07FFC0
0FFFE0
0FC7E0
1F03F0
1F01F0
1E01F0
1E00F0
0000F0
001FF0
00FFF0
03FFF0
07FFF0
0FF8F0
1FC0F0
1F00F0
3E00F0
3E00F0
3C01F0
3C01F0
3E03F0
3F8FFC
1FFFFC
1FFFFC
0FFF7C
03FC3C
000000
000000
000000
000000
000000
000000
000000
000000
000000
000000
ENDCHAR

STARTCHAR CODE098
ENCODING 98
SWIDTH 451 0
DWIDTH 24 0
BBX 24 48 0 -6
BITMAP
000000
000000
3C0000
3C0000
3C0000
3C0000
3C0000
3C0000
3C0000
3C0000
3C0000
3C3F00
3CFFC0
3DFFE0
3FFFF0
3FE3F8
3F80F8
3F007C
3E007C
3E003C
3C003C
3C003C
3C003C
3C003C
3C003C
3C003C
3C003C
3C003C
3C003C
3E003C
3E007C
3F007C
3F80F8
3FE3F8
3FFFF0
3FFFE0
3DFFC0
3C7F00
000000
000000
000000
000000
000000
000000
000000
000000
000000
000000
ENDCHAR

STARTCHAR CODE099
ENCODING 99
SWIDTH 451 0
DWIDTH 24 0
BBX 24 48 0 -6
BITMAP
000000
000000
000000
000000
000000
000000
000000
000000
000000
000000
000000
00FF80
03FFE0
07FFF0
0FFFF8
0FE1F8
1F80FC
1F007C
1F007C
3E003C
3E003C
3C0000
3C0000
3C0000
3C0000
3C0000
3C0000
3C0000
3E003C
3E003C
1F007C
1F007C
1F80FC
0FE3F8
0FFFF8
07FFF0
03FFE0
00FF80
000000
000000
000000
000000
000000
000000
000000
000000
000000
000000
ENDCHAR

STARTCHAR CODE100
ENCODING 100
SWIDTH 451 0
DWIDTH 24 0
BBX 24 48 0 -6
BITMAP
000000
000000
00003C
00003C
00003C
00003C
00003C
00003C
00003C
00003C
00003C
00FC3C
03FF3C
07FFBC
0FFFFC
1FC7FC
1F01FC
3E00FC
3E007C
3C007C
3C003C
3C003C
3C003C
3C003C
3C003C
3C003C
3C003C
3C003C
3C003C
3C007C
3E007C
3E00FC
1F01FC
1FC7FC
0FFFFC
07FFFC
03FFBC
00FE3C
000000
000000
000000
000000
000000
000000
000000
000000
000000
000000
ENDCHAR

STARTCHAR CODE101
ENCODING 101
SWIDTH 451 0
DWIDTH 24 0
BBX 24 48 0 -6
BITMAP
000000
000000
000000
000000
000000
000000
000000
000000
000000
000000
000000
00FF00
03FFC0
07FFE0
0FFFF0
1FC3F8
1F00F8
3E007C
3E007C
3C003C
3C003C
3C003C
3FFFFC
3FFFFC
3FFFFC
3FFFFC
3C0000
3C0000
3C0000
3C003C
3E003C
3E007C
1F007C
1FC1F8
0FFFF8
07FFF0
03FFE0
00FF80
000000
000000
000000
000000
000000
000000
000000
000000
000000
000000
ENDCHAR

STARTCHAR CODE102
ENCODING 102
SWIDTH 451 0
DWIDTH 24 0
BBX 24 48 0 -6
BITMAP
000000
000000
000FE0
003FE0
003FE0
007FE0
007C00
007800
007800
007800
007800
007800
0FFFF0
0FFFF0
0FFFF0
0FFFF0
007800
007800
007800
007800
007800
007800
007800
007800
007800
007800
007800
007800
007800
007800
007800
007800
007800
007800
007800
007800
007800
000000
000000
000000
000000
000000
000000
000000
000000
000000
000000
000000
ENDCHAR

STARTCHAR CODE103
ENCODING 103
SWIDTH 451 0
DWIDTH 24 0
BBX 24 48 0 -6
BITMAP
000000
000000
000000
000000
000000
000000
000000
000000
000000
000000
000000
00FF3C
03FFFC
07FFFC
0FFFFC
0FC3FC
1F00FC
1F007C
1E007C
3E003C
3C003C
3C003C
3C003C
3C003C
3C003C
3C003C
3C003C
3C003C
3E003C
1E007C
1F007C
1F00FC
0FC3FC
0FFFFC
07FFFC
03FFBC
00FE3C
00003C
3C003C
3C003C
3E007C
3E007C
1F81F8
1FFFF8
0FFFF0
07FFE0
01FF80
000000
ENDCHAR

STARTCHAR CODE104
ENCODING 104
SWIDTH 451 0
DWIDTH 24 0
BBX 24 48 0 -6
BITMAP
000000
000000
3C0000
3C0000
3C0000
3C0000
3C0000
3C0000
3C0000
3C0000
3C0000
3C3FC0
3CFFF0
3DFFF8
3FFFF8
3FE1FC
3F807C
3F007C
3E003C
3E003C
3C003C
3C003C
3C003C
3C003C
3C003C
3C003C
3C003C
3C003C
3C003C
3C003C
3C003C
3C003C
3C003C
3C003C
3C003C
3C003C
3C003C
000000
000000
000000
000000
000000
000000
000000
000000
000000
000000
000000
ENDCHAR

STARTCHAR CODE105
ENCODING 105
SWIDTH 451 0
DWIDTH 24 0
BBX 24 48 0 -6
BITMAP
000000
000000
003C00
003C00
003C00
003C00
003C00
003C00
000000
000000
000000
003C00
003C00
003C00
003C00
003C00
003C00
003C00
003C00
003C00
003C00
003C00
003C00
003C00
003C00
003C00
003C00
003C00
003C00
003C00
003C00
003C00
003C00
003C00
003C00
003C00
003C00
000000
000000
000000
000000
000000
000000
000000
000000
000000
000000
000000
ENDCHAR

STARTCHAR CODE106
ENCODING 106
SWIDTH 451 0
DWIDTH 24 0
BBX 24 48 0 -6
BITMAP
000000
000000
003C00
003C00
003C00
003C00
003C00
003C00
000000
000000
000000
003C00
003C00
003C00
003C00
003C00
003C00
003C00
003C00
003C00
003C00
003C00
003C00
003C00
003C00
003C00
003C00
003C00
003C00
003C00
003C00
003C00
003C00
003C00
003C00
003C00
003C00
003C00
003C00
003C00
003C00
003C00
007C00
03FC00
03F800
03F800
03E000
000000
ENDCHAR

STARTCHAR CODE107
ENCODING 107
SWIDTH 451 0
DWIDTH 24 0
BBX 24 48 0 -6
BITMAP
000000
000000
1E0000
1E0000
1E0000
1E0000
1E0000
1E0000
1E0000
1E0000
1E0000
1E00F8
1E01F8
1E03F0
1E07E0
1E0FC0
1E1F80
1E3F00
1E7E00
1EFC00
1FF800
1FF800
1FFC00
1FFC00
1FBE00
1F3E00
1E1F00
1E1F00
1E0F80
1E0F80
1E07C0
1E07C0
1E03E0
1E03E0
1E01F0
1E01F8
1E00F8
000000
000000
000000
000000
000000
000000
000000
000000
000000
000000
000000
ENDCHAR

STARTCHAR CODE108
ENCODING 108
SWIDTH 451 0
DWIDTH 24 0
BBX 24 48 0 -6
BITMAP
000000
000000
003C00
003C00
003C00
003C00
003C00
003C00
003C00
003C00
003C00
003C00
003C00
003C00
003C00
003C00
003C00
003C00
003C00
003C00
003C00
003C00
003C00
003C00
003C00
003C00
003C00
003C00
003C00
003C00
003C00
003C00
003C00
003C00
003C00
003C00
003C00
000000
000000
000000
000000
000000
000000
000000
000000
000000
000000
000000
ENDCHAR

STARTCHAR CODE109
ENCODING 109
SWIDTH 451 0
DWIDTH 24 0
BBX 24 48 0 -6
BITMAP
000000
000000
000000
000000
000000
000000
000000
000000
000000
000000
000000
79F0F8
7FFBFC
7FFFFE
7FFFFE
7E7F3F
7C3E1F
783E1F
781E0F
781E0F
781E0F
781E0F
781E0F
781E0F
781E0F
781E0F
781E0F
781E0F
781E0F
781E0F
781E0F
781E0F
781E0F
781E0F
781E0F
781E0F
781E0F
000000
000000
000000
000000
000000
000000
000000
000000
000000
000000
000000
ENDCHAR

STARTCHAR CODE110
ENCODING 110
SWIDTH 451 0
DWIDTH 24 0
BBX 24 48 0 -6
BITMAP
000000
000000
000000
000000
000000
000000
000000
000000
000000
000000
000000
3C7F80
3DFFE0
3FFFF0
3FFFF8
3FC1F8
3F007C
3E007C
3E003C
3C003C
3C003C
3C003C
3C003C
3C003C
3C003C
3C003C
3C003C
3C003C
3C003C
3C003C
3C003C
3C003C
3C003C
3C003C
3C003C
3C003C
3C003C
000000
000000
000000
000000
000000
000000
000000
000000
000000
000000
000000
ENDCHAR

STARTCHAR CODE111
ENCODING 111
SWIDTH 451 0
DWIDTH 24 0
BBX 24 48 0 -6
BITMAP
000000
000000
000000
000000
000000
000000
000000
000000
000000
000000
000000
00FF00
03FFC0
07FFE0
0FFFF0
0FC3F0
1F00F8
1E0078
3E007C
3C003C
3C003C
3C003C
3C003C
3C003C
3C003C
3C003C
3C003C
3C003C
3C003C
3E007C
3E007C
1F00F8
1F00F8
0FC3F0
0FFFF0
07FFE0
03FFC0
00FF00
000000
000000
000000
000000
000000
000000
000000
000000
000000
000000
ENDCHAR

STARTCHAR CODE112
ENCODING 112
SWIDTH 451 0
DWIDTH 24 0
BBX 24 48 0 -6
BITMAP
000000
000000
000000
000000
000000
000000
000000
000000
000000
000000
000000
3C7F00
3DFFC0
3FFFE0
3FFFF0
3FE3F8
3F80F8
3F007C
3E007C
3E003C
3C003C
3C003C
3C003C
3C003C
3C003C
3C003C
3C003C
3C003C
3C003C
3E003C
3E007C
3F007C
3F80F8
3FE3F8
3FFFF0
3FFFE0
3DFFC0
3C7F00
3C0000
3C0000
3C0000
3C0000
3C0000
3C0000
3C0000
3C0000
3C0000
000000
ENDCHAR

STARTCHAR CODE113
ENCODING 113
SWIDTH 451 0
DWIDTH 24 0
BBX 24 48 0 -6
BITMAP
000000
000000
000000
000000
000000
000000
000000
000000
000000
000000
000000
00FE3C
03FFBC
07FFFC
0FFFFC
1FC7FC
1F01FC
3E00FC
3E007C
3C007C
3C003C
3C003C
3C003C
3C003C
3C003C
3C003C
3C003C
3C003C
3C003C
3C007C
3E007C
3E00FC
1F01FC
1FC7FC
0FFFFC
07FFFC
03FFBC
00FE3C
00003C
00003C
00003C
00003C
00003C
00003C
00003C
00003C
00003C
000000
ENDCHAR

STARTCHAR CODE114
ENCODING 114
SWIDTH 451 0
DWIDTH 24 0
BBX 24 48 0 -6
BITMAP
000000
000000
000000
000000
000000
000000
000000
000000
000000
000000
000000
0787E0
079FE0
07BFE0
07FFE0
07FC00
07F000
07E000
07C000
07C000
078000
078000
078000
078000
078000
078000
078000
078000
078000
078000
078000
078000
078000
078000
078000
078000
078000
000000
000000
000000
000000
000000
000000
000000
000000
000000
000000
000000
ENDCHAR

STARTCHAR CODE115
ENCODING 115
SWIDTH 451 0
DWIDTH 24 0
BBX 24 48 0 -6
BITMAP
000000
000000
000000
000000
000000
000000
000000
000000
000000
000000
000000
00FF80
03FFE0
07FFF0
0FFFF8
0FC1F8
1F007C
1F007C
1E003C
1F003C
1F8000
0FE000
0FF800
07FF00
03FFC0
00FFF0
003FF8
0007F8
0001FC
3C007C
3C003C
3E003C
3E007C
1F81FC
1FFFF8
0FFFF8
07FFF0
01FFC0
000000
000000
000000
000000
000000
000000
000000
000000
000000
000000
ENDCHAR

STARTCHAR CODE116
ENCODING 116
SWIDTH 451 0
DWIDTH 24 0
BBX 24 48 0 -6
BITMAP
000000
000000
000000
000000
007800
007800
007800
007800
007800
007800
007800
007800
0FFFF0
0FFFF0
0FFFF0
0FFFF0
007800
007800
007800
007800
007800
007800
007800
007800
007800
007800
007800
007800
007800
007800
007800
007C00
007C00
007F00
003FE0
003FE0
001FE0
0007E0
000000
000000
000000
000000
000000
000000
000000
000000
000000
000000
ENDCHAR

STARTCHAR CODE117
ENCODING 117
SWIDTH 451 0
DWIDTH 24 0
BBX 24 48 0 -6
BITMAP
000000
000000
000000
000000
000000
000000
000000
000000
000000
000000
000000
3C003C
3C003C
3C003C
3C003C
3C003C
3C003C
3C003C
3C003C
3C003C
3C003C
3C003C
3C003C
3C003C
3C003C
3C003C
3C003C
3C003C
3C003C
3C003C
3E007C
3E007C
3F00FC
1FC3FC
1FFFFC
0FFFFC
07FFBC
01FE3C
000000
000000
000000
000000
000000
000000
000000
000000
000000
000000
ENDCHAR

STARTCHAR CODE118
ENCODING 118
SWIDTH 451 0
DWIDTH 24 0
BBX 24 48 0 -6
BITMAP
000000
000000
000000
000000
000000
000000
000000
000000
000000
000000
000000
3C003C
3C003C
3C003C
3E007C
1E0078
1E0078
1F00F8
0F00F0
0F00F0
0F81F0
0781E0
0781E0
07C3E0
03C3C0
03C3C0
03E7C0
01E780
01E780
01FF80
00FF00
00FF00
00FF00
007E00
007E00
007E00
003C00
003C00
000000
000000
000000
000000
000000
000000
000000
000000
000000
000000
ENDCHAR

STARTCHAR CODE119
ENCODING 119
SWIDTH 451 0
DWIDTH 24 0
BBX 24 48 0 -6
BITMAP
000000
000000
000000
000000
000000
000000
000000
000000
000000
000000
000000
783C1E
783C1E
783C1E
783C1E
787E1E
787E1E
787E1E
3C7E3C
3C7E3C
3CFF3C
3CFF3C
3CFF3C
1CFF38
1EE738
1FE7F8
1FE7F8
1FE7F8
0FE7F0
0FC3F0
0FC3F0
0FC3F0
0FC3F0
07C3E0
0781E0
0781E0
0781E0
000000
000000
000000
000000
000000
000000
000000
000000
000000
000000
000000
ENDCHAR

STARTCHAR CODE120
ENCODING 120
SWIDTH 451 0
DWIDTH 24 0
BBX 24 48 0 -6
BITMAP
000000
000000
000000
000000
000000
000000
000000
000000
000000
000000
000000
7C003E
7E007E
3F00FC
1F00F8
0F81F0
0FC3F0
07C3E0
03E7C0
03FFC0
01FF80
00FF00
00FF00
007E00
007E00
00FF00
00FF00
01FF80
03FFC0
03E7C0
07C3E0
0FC3F0
0F81F0
1F00F8
3F00FC
7E007E
7C003E
000000
000000
000000
000000
000000
000000
000000
000000
000000
000000
000000
ENDCHAR

STARTCHAR CODE121
ENCODING 121
SWIDTH 451 0
DWIDTH 24 0
BBX 24 48 0 -6
BITMAP
000000
000000
000000
000000
000000
000000
000000
000000
000000
000000
000000
3C003C
3C003C
3E003C
3E007C
1E007C
1F0078
0F00F8
0F00F8
0F80F0
0780F0
0781F0
07C1E0
03C1E0
03E3E0
03E3C0
01E3C0
01F3C0
01F780
00F780
00FF80
00FF80
007F00
007F00
003F00
003E00
003E00
003E00
003C00
003C00
007C00
007800
01F800
0FF000
0FF000
0FE000
0F8000
000000
ENDCHAR

STARTCHAR CODE122
ENCODING 122
SWIDTH 451 0
DWIDTH 24 0
BBX 24 48 0 -6
BITMAP
000000
000000
000000
000000
000000
000000
000000
000000
000000
000000
000000
1FFFF8
1FFFF8
1FFFF8
1FFFF8
0001F8
0001F0
0003F0
0007E0
0007C0
000FC0
001F80
001F00
003F00
007E00
007C00
00FC00
01F800
01F000
03F000
07E000
07C000
0FC000
1FFFFC
1FFFFC
1FFFFC
1FFFFC
000000
000000
000000
000000
000000
000000
000000
000000
000000
000000
000000
ENDCHAR

STARTCHAR CODE123
ENCODING 123
SWIDTH 451 0
DWIDTH 24 0
BBX 24 48 0 -6
BITMAP
000000
000000
000F80
001F80
001F80
003F80
003E00
003C00
003C00
003C00
003C00
003C00
003C00
003C00
003C00
003C00
003C00
003C00
003C00
007C00
007C00
00F800
01F800
01F000
01E000
01F000
01F800
00F800
007C00
007C00
003C00
003C00
003C00
003C00
003C00
003C00
003C00
003C00
003C00
003C00
003C00
003C00
003E00
003F80
001F80
001F80
000F80
000000
ENDCHAR

STARTCHAR CODE124
ENCODING 124
SWIDTH 451 0
DWIDTH 24 0
BBX 24 48 0 -6
BITMAP
000000
003C00
003C00
003C00
003C00
003C00
003C00
003C00
003C00
003C00
003C00
003C00
003C00
003C00
003C00
003C00
003C00
003C00
003C00
003C00
003C00
003C00
003C00
003C00
003C00
003C00
003C00
003C00
003C00
003C00
003C00
003C00
003C00
003C00
003C00
003C00
003C00
003C00
000000
000000
000000
000000
000000
000000
000000
000000
000000
000000
ENDCHAR

STARTCHAR CODE125
ENCODING 125
SWIDTH 451 0
DWIDTH 24 0
BBX 24 48 0 -6
BITMAP
000000
000000
01F000
01F800
01F800
01FC00
007C00
003C00
003C00
003C00
003C00
003C00
003C00
003C00
003C00
003C00
003C00
003C00
003C00
003E00
003E00
001F00
001F80
000F80
000780
000F80
001F80
001F00
003E00
003E00
003C00
003C00
003C00
003C00
003C00
003C00
003C00
003C00
003C00
003C00
003C00
003C00
007C00
01FC00
01F800
01F800
01F000
000000
ENDCHAR

STARTCHAR CODE126
ENCODING 126
SWIDTH 451 0
DWIDTH 24 0
BBX 24 48 0 -6
BITMAP
000000
000000
000000
000000
000000
000000
000000
000000
000000
000000
000000
000000
000000
000000
000000
000000
000000
000000
000000
000000
03E00C
0FF81C
1FFE7C
3FFFFC
3E7FF8
381FF0
3007C0
000000
000000
000000
000000
000000
000000
000000
000000
000000
000000
000000
000000
000000
000000
000000
000000
000000
000000
000000
000000
000000
ENDCHAR

STARTCHAR CODE127
ENCODING 127
SWIDTH 451 0
DWIDTH 24 0
BBX 24 48 0 -6
BITMAP
000000
000000
000000
000000
000000
000000
000000
000000
000000
000000
000000
000000
000000
000000
000000
000000
000000
000000
000000
000000
000000
000000
000000
000000
000000
000000
000000
000000
000000
000000
000000
000000
000000
000000
000000
000000
000000
000000
000000
000000
000000
000000
000000
000000
000000
000000
000000
000000
ENDCHAR

STARTCHAR CODE128
ENCODING 128
SWIDTH 451 0
DWIDTH 24 0
BBX 24 48 0 -6
BITMAP
000000
007F80
01FFE0
03FFF0
07FFF8
0FF1FC
0FC07E
1F803E
1F001F
1F001F
3E000F
3E000F
3E000F
7C0000
7C0000
7C0000
780000
780000
780000
780000
780000
780000
780000
7C0000
7C0000
7C000F
3E000F
3E000F
3E001F
1F001F
1F003E
1F807E
0FE1FC
0FFFF8
07FFF0
03FFE0
00FF80
003800
007E00
00FF00
01FF80
01CF80
000780
000F80
01FF80
01FF00
01FE00
000000
ENDCHAR

STARTCHAR CODE129
ENCODING 129
SWIDTH 451 0
DWIDTH 24 0
BBX 24 48 0 -6
BITMAP
000000
000000
000000
01E780
01E780
01E780
01E780
01E780
000000
000000
000000
3C003C
3C003C
3C003C
3C003C
3C003C
3C003C
3C003C
3C003C
3C003C
3C003C
3C003C
3C003C
3C003C
3C003C
3C003C
3C003C
3C003C
3C003C
3C003C
3E007C
3E007C
3F00FC
1FC3FC
1FFFFC
0FFFFC
07FFBC
01FE3C
000000
000000
000000
000000
000000
000000
000000
000000
000000
000000
ENDCHAR

STARTCHAR CODE130
ENCODING 130
SWIDTH 451 0
DWIDTH 24 0
BBX 24 48 0 -6
BITMAP
000000
000000
000F80
001F80
001F00
003E00
003C00
007800
007000
000000
000000
00FF00
03FFC0
07FFE0
0FFFF0
1FC3F0
1F00F8
3E0078
3E007C
3C003C
3C003C
3C003C
3FFFFC
3FFFFC
3FFFFC
3FFFFC
3C0000
3C0000
3C0000
3C003C
3E003C
3E007C
1F007C
1FC1F8
0FFFF8
07FFF0
03FFE0
00FF80
000000
000000
000000
000000
000000
000000
000000
000000
000000
000000
ENDCHAR

STARTCHAR CODE131
ENCODING 131
SWIDTH 451 0
DWIDTH 24 0
BBX 24 48 0 -6
BITMAP
000000
003C00
007E00
007E00
00FF00
00FF00
01E780
01E780
01C380
000000
000000
00FE00
03FF80
07FFC0
0FFFE0
0FC7E0
1F03F0
1F01F0
1E01F0
1E00F0
0000F0
001FF0
00FFF0
03FFF0
07FFF0
0FF8F0
1FC0F0
1F00F0
3E00F0
3E00F0
3C01F0
3C01F0
3E03F0
3F8FFC
1FFFFC
1FFFFC
0FFF7C
03FC3C
000000
000000
000000
000000
000000
000000
000000
000000
000000
000000
ENDCHAR

STARTCHAR CODE132
ENCODING 132
SWIDTH 451 0
DWIDTH 24 0
BBX 24 48 0 -6
BITMAP
000000
000000
000000
01E780
01E780
01E780
01E780
01E780
000000
000000
000000
00FE00
03FF80
07FFC0
0FFFE0
0FC7E0
1F03F0
1F01F0
1E01F0
1E00F0
0000F0
001FF0
00FFF0
03FFF0
07FFF0
0FF8F0
1FC0F0
1F00F0
3E00F0
3E00F0
3C01F0
3C01F0
3E03F0
3F8FFC
1FFFFC
1FFFFC
0FFF7C
03FC3C
000000
000000
000000
000000
000000
000000
000000
000000
000000
000000
ENDCHAR

STARTCHAR CODE133
ENCODING 133
SWIDTH 451 0
DWIDTH 24 0
BBX 24 48 0 -6
BITMAP
000000
000000
03E000
03F000
01F000
00F800
007800
003C00
001C00
000000
000000
00FE00
03FF80
07FFC0
0FFFE0
0FC7E0
1F03F0
1F01F0
1E01F0
1E00F0
0000F0
001FF0
00FFF0
03FFF0
07FFF0
0FF8F0
1FC0F0
1F00F0
3E00F0
3E00F0
3C01F0
3C01F0
3E03F0
3F8FFC
1FFFFC
1FFFFC
0FFF7C
03FC3C
000000
000000
000000
000000
000000
000000
000000
000000
000000
000000
ENDCHAR

STARTCHAR CODE134
ENCODING 134
SWIDTH 451 0
DWIDTH 24 0
BBX 24 48 0 -6
BITMAP
001E00
007F80
007F80
00F3C0
00E1C0
00E1C0
00F3C0
007F80
007F80
001E00
000000
00FE00
03FF80
07FFC0
0FFFE0
0FC7E0
1F03F0
1F01F0
1E01F0
1E00F0
0000F0
001FF0
00FFF0
03FFF0
07FFF0
0FF8F0
1FC0F0
1F00F0
3E00F0
3E00F0
3C01F0
3C01F0
3E03F0
3F8FFC
1FFFFC
1FFFFC
0FFF7C
03FC3C
000000
000000
000000
000000
000000
000000
000000
000000
000000
000000
ENDCHAR

STARTCHAR CODE135
ENCODING 135
SWIDTH 451 0
DWIDTH 24 0
BBX 24 48 0 -6
BITMAP
000000
000000
000000
000000
000000
000000
000000
000000
000000
000000
000000
00FF80
03FFE0
07FFF0
0FFFF8
0FE1F8
1F80FC
1F007C
1F007C
3E003C
3E003C
3C0000
3C0000
3C0000
3C0000
3C0000
3C0000
3C0000
3E003C
3E003C
1F007C
1F007C
1F80FC
0FE3F8
0FFFF8
07FFF0
03FFE0
00FF80
007000
007C00
00FF00
00FF80
00EF80
000F80
007F80
007F00
007C00
000000
ENDCHAR

STARTCHAR CODE136
ENCODING 136
SWIDTH 451 0
DWIDTH 24 0
BBX 24 48 0 -6
BITMAP
000000
003C00
007E00
007E00
00FF00
00FF00
01E780
01E780
01C380
000000
000000
00FF00
03FFC0
07FFE0
0FFFF0
1FC3F8
1F00F8
3E007C
3E007C
3C003C
3C003C
3C003C
3FFFFC
3FFFFC
3FFFFC
3FFFFC
3C0000
3C0000
3C0000
3C003C
3E003C
3E007C
1F007C
1FC1F8
0FFFF8
07FFF0
03FFE0
00FF80
000000
000000
000000
000000
000000
000000
000000
000000
000000
000000
ENDCHAR

STARTCHAR CODE137
ENCODING 137
SWIDTH 451 0
DWIDTH 24 0
BBX 24 48 0 -6
BITMAP
000000
000000
000000
01E780
01E780
01E780
01E780
01E780
000000
000000
000000
00FF00
03FFC0
07FFE0
0FFFF0
1FC3F8
1F00F8
3E007C
3E007C
3C003C
3C003C
3C003C
3FFFFC
3FFFFC
3FFFFC
3FFFFC
3C0000
3C0000
3C0000
3C003C
3E003C
3E007C
1F007C
1FC1F8
0FFFF8
07FFF0
03FFE0
00FF80
000000
000000
000000
000000
000000
000000
000000
000000
000000
000000
ENDCHAR

STARTCHAR CODE138
ENCODING 138
SWIDTH 451 0
DWIDTH 24 0
BBX 24 48 0 -6
BITMAP
000000
000000
03E000
03F000
01F000
00F800
007800
003C00
001C00
000000
000000
00FF00
03FFC0
07FFE0
0FFFF0
1FC3F8
1F00F8
3E007C
3E007C
3C003C
3C003C
3C003C
3FFFFC
3FFFFC
3FFFFC
3FFFFC
3C0000
3C0000
3C0000
3C003C
3E003C
3E007C
1F007C
1FC1F8
0FFFF8
07FFF0
03FFE0
00FF80
000000
000000
000000
000000
000000
000000
000000
000000
000000
000000
ENDCHAR

STARTCHAR CODE139
ENCODING 139
SWIDTH 451 0
DWIDTH 24 0
BBX 24 48 0 -6
BITMAP
000000
000000
000000
01E780
01E780
01E780
01E780
01E780
000000
000000
000000
003C00
003C00
003C00
003C00
003C00
003C00
003C00
003C00
003C00
003C00
003C00
003C00
003C00
003C00
003C00
003C00
003C00
003C00
003C00
003C00
003C00
003C00
003C00
003C00
003C00
003C00
000000
000000
000000
000000
000000
000000
000000
000000
000000
000000
000000
ENDCHAR

STARTCHAR CODE140
ENCODING 140
SWIDTH 451 0
DWIDTH 24 0
BBX 24 48 0 -6
BITMAP
000000
003C00
007E00
007E00
00FF00
00FF00
01E780
01E780
01C380
000000
000000
003C00
003C00
003C00
003C00
003C00
003C00
003C00
003C00
003C00
003C00
003C00
003C00
003C00
003C00
003C00
003C00
003C00
003C00
003C00
003C00
003C00
003C00
003C00
003C00
003C00
003C00
000000
000000
000000
000000
000000
000000
000000
000000
000000
000000
000000
ENDCHAR

STARTCHAR CODE141
ENCODING 141
SWIDTH 451 0
DWIDTH 24 0
BBX 24 48 0 -6
BITMAP
000000
01F000
01F800
00F800
007C00
003C00
001E00
000E00
000000
000000
000000
003C00
003C00
003C00
003C00
003C00
003C00
003C00
003C00
003C00
003C00
003C00
003C00
003C00
003C00
003C00
003C00
003C00
003C00
003C00
003C00
003C00
003C00
003C00
003C00
003C00
003C00
000000
000000
000000
000000
000000
000000
000000
000000
000000
000000
000000
ENDCHAR

STARTCHAR CODE142
ENCODING 142
SWIDTH 451 0
DWIDTH 24 0
BBX 24 48 0 -6
BITMAP
01E780
01E780
01E780
01E780
01E780
000000
000000
003C00
003C00
007E00
007E00
007E00
00FF00
00FF00
00FF00
01FF80
01E780
01E780
03E7C0
03C3C0
03C3C0
07C3E0
0781E0
0781E0
0F81F0
0FFFF0
0FFFF0
1FFFF0
1FFFF8
1E0078
1E0078
3E007C
3C003C
3C003C
7C003E
78001E
78001E
000000
000000
000000
000000
000000
000000
000000
000000
000000
000000
000000
ENDCHAR

STARTCHAR CODE143
ENCODING 143
SWIDTH 451 0
DWIDTH 24 0
BBX 24 48 0 -6
BITMAP
00FE00
01FF00
01EF00
01EF00
01FF00
00FE00
007C00
000000
003C00
003C00
007E00
007E00
00FF00
00FF00
00FF00
01FF80
01E780
01E780
03E7C0
03C3C0
03C3C0
07C3E0
0781E0
0781E0
0F81F0
0FFFF0
0FFFF0
0FFFF0
1FFFF8
1E0078
1E0078
3E007C
3C003C
3C003C
7C003E
78001E
78001E
000000
000000
000000
000000
000000
000000
000000
000000
000000
000000
000000
ENDCHAR

STARTCHAR CODE144
ENCODING 144
SWIDTH 451 0
DWIDTH 24 0
BBX 24 48 0 -6
BITMAP
001F80
001F00
003E00
003C00
007800
007000
000000
000000
3FFFFC
3FFFFC
3FFFFC
3FFFFC
3C0000
3C0000
3C0000
3C0000
3C0000
3C0000
3C0000
3C0000
3FFFF8
3FFFF8
3FFFF8
3FFFF8
3C0000
3C0000
3C0000
3C0000
3C0000
3C0000
3C0000
3C0000
3C0000
3FFFFC
3FFFFC
3FFFFC
3FFFFC
000000
000000
000000
000000
000000
000000
000000
000000
000000
000000
000000
ENDCHAR

STARTCHAR CODE145
ENCODING 145
SWIDTH 451 0
DWIDTH 24 0
BBX 24 48 0 -6
BITMAP
000000
000000
000000
000000
000000
000000
000000
000000
000000
000000
000000
0FC3E0
3FE7F8
7FFFFC
7FFFFE
FCFF3E
F87E1F
F03E0F
F03C0F
F03C0F
003C0F
01FFFF
07FFFF
1FFFFF
3FFFFF
7F3C00
7C3C00
F83C00
F83C0F
F03C0F
F07C0F
F07E1F
F8FE1F
FDFF3E
7FFFFE
7FFFFC
3FE7F8
0FC1F0
000000
000000
000000
000000
000000
000000
000000
000000
000000
000000
ENDCHAR

STARTCHAR CODE146
ENCODING 146
SWIDTH 451 0
DWIDTH 24 0
BBX 24 48 0 -6
BITMAP
000000
000000
01FFFF
01FFFF
01FFFF
01FFFF
03FE00
03FE00
03DE00
03DE00
07DE00
07DE00
079E00
079E00
0F9E00
0F9E00
0F1E00
0F1FFE
1F1FFE
1F1FFE
1E1FFE
1E1E00
3E1E00
3FFE00
3FFE00
3FFE00
7FFE00
781E00
781E00
781E00
F81E00
F01E00
F01E00
F01FFF
F01FFF
F01FFF
F01FFF
000000
000000
000000
000000
000000
000000
000000
000000
000000
000000
000000
ENDCHAR

STARTCHAR CODE147
ENCODING 147
SWIDTH 451 0
DWIDTH 24 0
BBX 24 48 0 -6
BITMAP
000000
003C00
007E00
007E00
00FF00
00FF00
01E780
01E780
01C380
000000
000000
00FF00
03FFC0
07FFE0
0FFFF0
0FC3F0
1F00F8
1E0078
3E007C
3C003C
3C003C
3C003C
3C003C
3C003C
3C003C
3C003C
3C003C
3C003C
3C003C
3E007C
3E007C
1F00F8
1F00F8
0FC3F0
0FFFF0
07FFE0
03FFC0
00FF00
000000
000000
000000
000000
000000
000000
000000
000000
000000
000000
ENDCHAR

STARTCHAR CODE148
ENCODING 148
SWIDTH 451 0
DWIDTH 24 0
BBX 24 48 0 -6
BITMAP
000000
000000
000000
01E780
01E780
01E780
01E780
01E780
000000
000000
000000
00FF00
03FFC0
07FFE0
0FFFF0
0FC3F0
1F00F8
1E0078
3E007C
3C003C
3C003C
3C003C
3C003C
3C003C
3C003C
3C003C
3C003C
3C003C
3C003C
3E007C
3E007C
1F00F8
1F00F8
0FC3F0
0FFFF0
07FFE0
03FFC0
00FF00
000000
000000
000000
000000
000000
000000
000000
000000
000000
000000
ENDCHAR

STARTCHAR CODE149
ENCODING 149
SWIDTH 451 0
DWIDTH 24 0
BBX 24 48 0 -6
BITMAP
000000
01F000
01F800
00F800
007C00
003C00
001E00
000E00
000000
000000
000000
00FF00
03FFC0
07FFE0
0FFFF0
0FC3F0
1F00F8
1E0078
3E007C
3C003C
3C003C
3C003C
3C003C
3C003C
3C003C
3C003C
3C003C
3C003C
3C003C
3E007C
3E007C
1F00F8
1F00F8
0FC3F0
0FFFF0
07FFE0
03FFC0
00FF00
000000
000000
000000
000000
000000
000000
000000
000000
000000
000000
ENDCHAR

STARTCHAR CODE150
ENCODING 150
SWIDTH 451 0
DWIDTH 24 0
BBX 24 48 0 -6
BITMAP
000000
003C00
007E00
007E00
00FF00
00FF00
01E780
01E780
01C380
000000
000000
3C003C
3C003C
3C003C
3C003C
3C003C
3C003C
3C003C
3C003C
3C003C
3C003C
3C003C
3C003C
3C003C
3C003C
3C003C
3C003C
3C003C
3C003C
3C003C
3E007C
3E007C
3F00FC
1FC3FC
1FFFFC
0FFFFC
07FFBC
01FE3C
000000
000000
000000
000000
000000
000000
000000
000000
000000
000000
ENDCHAR

STARTCHAR CODE151
ENCODING 151
SWIDTH 451 0
DWIDTH 24 0
BBX 24 48 0 -6
BITMAP
000000
01F000
01F800
00F800
007C00
003C00
001E00
000E00
000000
000000
000000
3C003C
3C003C
3C003C
3C003C
3C003C
3C003C
3C003C
3C003C
3C003C
3C003C
3C003C
3C003C
3C003C
3C003C
3C003C
3C003C
3C003C
3C003C
3C003C
3E007C
3E007C
3F00FC
1FC3FC
1FFFFC
0FFFFC
07FFBC
01FE3C
000000
000000
000000
000000
000000
000000
000000
000000
000000
000000
ENDCHAR

STARTCHAR CODE152
ENCODING 152
SWIDTH 451 0
DWIDTH 24 0
BBX 24 48 0 -6
BITMAP
000000
000000
000000
01E780
01E780
01E780
01E780
01E780
000000
000000
000000
3C003C
3C003C
3E003C
3E007C
1E007C
1F0078
0F00F8
0F00F8
0F80F0
0780F0
0781F0
07C1E0
03C1E0
03E3E0
03E3C0
01E3C0
01F3C0
01F780
00F780
00FF80
00FF80
007F00
007F00
003F00
003E00
003E00
003E00
003C00
003C00
007C00
007800
01F800
0FF000
0FF000
0FE000
0F8000
000000
ENDCHAR

STARTCHAR CODE153
ENCODING 153
SWIDTH 451 0
DWIDTH 24 0
BBX 24 48 0 -6
BITMAP
01E780
01E780
01E780
01E780
000000
00FF00
03FFC0
07FFE0
0FFFF0
1FC3F8
3F00FC
3E007C
7E007E
7C003E
7C003E
FC003F
F8001F
F8001F
F8001F
F8001F
F8001F
F8001F
F8001F
F8001F
F8001F
F8001F
F8001F
FC003F
7C003E
7C003E
7E007E
3E007C
3F00FC
1FC3F8
0FFFF0
07FFE0
03FFC0
00FF00
000000
000000
000000
000000
000000
000000
000000
000000
000000
000000
ENDCHAR

STARTCHAR CODE154
ENCODING 154
SWIDTH 451 0
DWIDTH 24 0
BBX 24 48 0 -6
BITMAP
01E780
01E780
01E780
01E780
000000
3C003C
3C003C
3C003C
3C003C
3C003C
3C003C
3C003C
3C003C
3C003C
3C003C
3C003C
3C003C
3C003C
3C003C
3C003C
3C003C
3C003C
3C003C
3C003C
3C003C
3C003C
3C003C
3C003C
3C003C
3C003C
3E007C
3E007C
3F00FC
1FC3F8
1FFFF8
0FFFF0
07FFE0
01FF80
000000
000000
000000
000000
000000
000000
000000
000000
000000
000000
ENDCHAR

STARTCHAR CODE155
ENCODING 155
SWIDTH 451 0
DWIDTH 24 0
BBX 24 48 0 -6
BITMAP
000000
000000
000000
000000
000000
000000
000700
000700
000700
000700
000700
00FF80
03FFE0
07FFF0
0FFFF8
0FEFF8
1F8EFC
1F0E7C
1F1E7C
3E1C3C
3E1C3C
3C1C00
3C1C00
3C1C00
3C3C00
3C3800
3C3800
3C3800
3E383C
3E383C
1F787C
1F707C
1FF0FC
0FF3F8
0FFFF8
07FFF0
03FFE0
00FF80
00E000
00E000
00E000
00E000
00E000
000000
000000
000000
000000
000000
ENDCHAR

STARTCHAR CODE156
ENCODING 156
SWIDTH 451 0
DWIDTH 24 0
BBX 24 48 0 -6
BITMAP
000000
000000
00FE00
03FF80
07FFC0
07FFE0
0FC3F0
0F81F0
1F00F8
1F00F8
1F0078
1E0078
1E0078
1E0000
1F0000
1F0000
0F0000
0F0000
7FFF80
7FFF80
7FFF80
7FFF80
078000
078000
078000
078000
078000
078000
0F8000
0F8000
1F0000
1F0000
3FC01C
7FF87E
7FFFFF
3FFFFF
3E7FFC
180FF0
000000
000000
000000
000000
000000
000000
000000
000000
000000
000000
ENDCHAR

STARTCHAR CODE157
ENCODING 157
SWIDTH 451 0
DWIDTH 24 0
BBX 24 48 0 -6
BITMAP
000000
000000
78001E
78001E
7C003E
7C003E
3E007C
3E007C
1F00F8
1F00F8
0F81F0
0F81F0
07C3E0
07C3E0
03E7C0
03E7C0
01FF80
01FF80
1FFFF8
1FFFF8
1FFFF8
1FFFF8
003C00
003C00
1FFFF8
1FFFF8
1FFFF8
1FFFF8
003C00
003C00
003C00
003C00
003C00
003C00
003C00
003C00
003C00
000000
000000
000000
000000
000000
000000
000000
000000
000000
000000
000000
ENDCHAR

STARTCHAR CODE158
ENCODING 158
SWIDTH 451 0
DWIDTH 24 0
BBX 24 48 0 -6
BITMAP
000000
000000
FF0000
FFC000
FFE0F0
FFF0F0
F3F8F0
F0F8F0
F07CF0
F07CF0
F03CF0
F03CF0
F03FFF
F03FFF
F03FFF
F07FFF
F07CF0
F0F8F0
F3F8F0
FFF0F0
FFE0F0
FFC0F0
FF00F0
F000F0
F000F0
F000F0
F000F0
F000F0
F000F0
F000F0
F000F0
F000F0
F000F8
F000FF
F0007F
F0007F
F0001F
000000
000000
000000
000000
000000
000000
000000
000000
000000
000000
000000
ENDCHAR

STARTCHAR CODE159
ENCODING 159
SWIDTH 451 0
DWIDTH 24 0
BBX 24 48 0 -6
BITMAP
000000
0000FC
0001FC
0003FC
0003FC
0007E0
0007C0
000780
000780
000F80
000F80
000F00
000F00
000F00
01FFF0
01FFF0
01FFF0
01FFF0
001E00
001E00
001E00
003E00
003E00
003C00
003C00
003C00
003C00
007C00
007C00
007800
007800
007800
007800
00F800
00F800
00F000
00F000
00F000
01F000
01F000
01E000
03E000
07E000
3FC000
3FC000
3F8000
3F0000
000000
ENDCHAR

STARTCHAR CODE160
ENCODING 160
SWIDTH 451 0
DWIDTH 24 0
BBX 24 48 0 -6
BITMAP
000000
000F80
001F80
001F00
003E00
003C00
007800
007000
000000
000000
000000
00FE00
03FF80
07FFC0
0FFFE0
0FC7E0
1F03F0
1F01F0
1E01F0
1E00F0
0000F0
001FF0
00FFF0
03FFF0
07FFF0
0FF8F0
1FC0F0
1F00F0
3E00F0
3E00F0
3C01F0
3C01F0
3E03F0
3F8FFC
1FFFFC
1FFFFC
0FFF7C
03FC3C
000000
000000
000000
000000
000000
000000
000000
000000
000000
000000
ENDCHAR

STARTCHAR CODE161
ENCODING 161
SWIDTH 451 0
DWIDTH 24 0
BBX 24 48 0 -6
BITMAP
000000
0007C0
000FC0
000F80
001F00
001E00
003C00
003800
000000
000000
000000
003C00
003C00
003C00
003C00
003C00
003C00
003C00
003C00
003C00
003C00
003C00
003C00
003C00
003C00
003C00
003C00
003C00
003C00
003C00
003C00
003C00
003C00
003C00
003C00
003C00
003C00
000000
000000
000000
000000
000000
000000
000000
000000
000000
000000
000000
ENDCHAR

STARTCHAR CODE162
ENCODING 162
SWIDTH 451 0
DWIDTH 24 0
BBX 24 48 0 -6
BITMAP
000000
000F80
001F80
001F00
003E00
003C00
007800
007000
000000
000000
000000
00FF00
03FFC0
07FFE0
0FFFF0
0FC3F0
1F00F8
1E0078
3E007C
3C003C
3C003C
3C003C
3C003C
3C003C
3C003C
3C003C
3C003C
3C003C
3C003C
3E007C
3E007C
1F00F8
1F00F8
0FC3F0
0FFFF0
07FFE0
03FFC0
00FF00
000000
000000
000000
000000
000000
000000
000000
000000
000000
000000
ENDCHAR

STARTCHAR CODE163
ENCODING 163
SWIDTH 451 0
DWIDTH 24 0
BBX 24 48 0 -6
BITMAP
000000
000F80
001F80
001F00
003E00
003C00
007800
007000
000000
000000
000000
3C003C
3C003C
3C003C
3C003C
3C003C
3C003C
3C003C
3C003C
3C003C
3C003C
3C003C
3C003C
3C003C
3C003C
3C003C
3C003C
3C003C
3C003C
3C003C
3E007C
3E007C
3F00FC
1FC3FC
1FFFFC
0FFFFC
07FFBC
01FE3C
000000
000000
000000
000000
000000
000000
000000
000000
000000
000000
ENDCHAR

STARTCHAR CODE164
ENCODING 164
SWIDTH 451 0
DWIDTH 24 0
BBX 24 48 0 -6
BITMAP
000000
000000
01E0C0
03F9C0
07FFC0
07FFC0
073F80
060F00
000000
000000
000000
3C7F80
3DFFE0
3FFFF0
3FFFF8
3FC1F8
3F007C
3E007C
3E003C
3C003C
3C003C
3C003C
3C003C
3C003C
3C003C
3C003C
3C003C
3C003C
3C003C
3C003C
3C003C
3C003C
3C003C
3C003C
3C003C
3C003C
3C003C
000000
000000
000000
000000
000000
000000
000000
000000
000000
000000
000000
ENDCHAR

STARTCHAR CODE165
ENCODING 165
SWIDTH 451 0
DWIDTH 24 0
BBX 24 48 0 -6
BITMAP
03F9C0
07FFC0
07FFC0
073F80
060F00
000000
7C001E
7C001E
7E001E
7E001E
7F001E
7F801E
7F801E
7FC01E
7FE01E
7BE01E
79F01E
79F81E
78F81E
787C1E
787E1E
783E1E
781F1E
781F9E
780F9E
7807DE
7807FE
7803FE
7801FE
7801FE
7800FE
78007E
78007E
78003E
78003E
78001E
78001E
000000
000000
000000
000000
000000
000000
000000
000000
000000
000000
000000
ENDCHAR

STARTCHAR CODE166
ENCODING 166
SWIDTH 451 0
DWIDTH 24 0
BBX 24 48 0 -6
BITMAP
000000
00FE00
03FF80
07FFC0
07EFE0
0F83E0
0F01E0
0F01E0
00FFE0
03FFE0
07FFE0
07C1E0
0F81E0
0F03E0
0FCFF8
0FFFF8
07FFF8
01FC78
000000
01FFE0
01FFE0
01FFE0
01FFE0
000000
000000
000000
000000
000000
000000
000000
000000
000000
000000
000000
000000
000000
000000
000000
000000
000000
000000
000000
000000
000000
000000
000000
000000
000000
ENDCHAR

STARTCHAR CODE167
ENCODING 167
SWIDTH 451 0
DWIDTH 24 0
BBX 24 48 0 -6
BITMAP
000000
007E00
01FF80
03FFC0
07FFE0
07E7E0
0F81F0
0F81F0
0F00F0
0F00F0
0F00F0
0F81F0
0F81F0
07E7E0
07FFE0
03FFC0
01FF80
007E00
000000
01FFC0
01FFC0
01FFC0
01FFC0
000000
000000
000000
000000
000000
000000
000000
000000
000000
000000
000000
000000
000000
000000
000000
000000
000000
000000
000000
000000
000000
000000
000000
000000
000000
ENDCHAR

STARTCHAR CODE168
ENCODING 168
SWIDTH 451 0
DWIDTH 24 0
BBX 24 48 0 -6
BITMAP
000000
000000
000000
000000
000000
000000
000000
000000
000000
000000
000000
000000
003C00
003C00
003C00
003C00
003C00
000000
000000
000000
003C00
003C00
003C00
003C00
003C00
007C00
007C00
00F800
01F800
03F000
07E000
0FC000
0F8000
1F0000
1F0000
3E003C
3E003C
3C003C
3C003C
3E007C
3E007C
3F00F8
1FC3F8
1FFFF0
0FFFE0
07FFC0
01FF00
000000
ENDCHAR

STARTCHAR CODE169
ENCODING 169
SWIDTH 451 0
DWIDTH 24 0
BBX 24 48 0 -6
BITMAP
000000
000000
000000
000000
000000
000000
000000
000000
000000
000000
000000
000000
000000
000000
000000
000000
000000
3FFFFC
3FFFFC
3FFFFC
380000
380000
380000
380000
380000
380000
380000
380000
380000
000000
000000
000000
000000
000000
000000
000000
000000
000000
000000
000000
000000
000000
000000
000000
000000
000000
000000
000000
ENDCHAR

STARTCHAR CODE170
ENCODING 170
SWIDTH 451 0
DWIDTH 24 0
BBX 24 48 0 -6
BITMAP
000000
000000
000000
000000
000000
000000
000000
000000
000000
000000
000000
000000
000000
000000
000000
000000
000000
3FFFFC
3FFFFC
3FFFFC
3FFFFC
00001C
00001C
00001C
00001C
00001C
00001C
00001C
00001C
000000
000000
000000
000000
000000
000000
000000
000000
000000
000000
000000
000000
000000
000000
000000
000000
000000
000000
000000
ENDCHAR

STARTCHAR CODE171
ENCODING 171
SWIDTH 451 0
DWIDTH 24 0
BBX 24 48 0 -6
BITMAP
000000
000000
001C00
003C00
007C00
01FC00
01FC00
01FC00
003C00
003C00
003C00
003C00
003C00
003C00
003C00
003C00
003C00
003C00
003C00
000000
000000
FFFFFF
FFFFFF
FFFFFF
FFFFFF
000000
000000
00FF00
03FFC0
07FFE0
0FFFF0
0F81F0
0F00F0
0F01F0
0003F0
000FE0
003FC0
00FF80
03FE00
07F800
0FE000
0FFFF0
0FFFF0
0FFFF0
0FFFF0
000000
000000
000000
ENDCHAR

STARTCHAR CODE172
ENCODING 172
SWIDTH 451 0
DWIDTH 24 0
BBX 24 48 0 -6
BITMAP
000000
000000
001C00
003C00
007C00
01FC00
01FC00
01FC00
003C00
003C00
003C00
003C00
003C00
003C00
003C00
003C00
003C00
003C00
003C00
000000
000000
FFFFFF
FFFFFF
FFFFFF
FFFFFF
000000
000000
000F00
001F00
003F00
007F00
00FF00
01FF00
03FF00
07EF00
0FCF00
1F8F00
1FFFF0
1FFFF0
1FFFF0
1FFFF0
000F00
000F00
000F00
000F00
000000
000000
000000
ENDCHAR

STARTCHAR CODE173
ENCODING 173
SWIDTH 451 0
DWIDTH 24 0
BBX 24 48 0 -6
BITMAP
000000
000000
000000
000000
000000
000000
000000
000000
000000
000000
000000
003E00
003E00
003E00
003E00
003E00
000000
000000
000000
001C00
001C00
001C00
001C00
001C00
003E00
003E00
003E00
003E00
003E00
003E00
003E00
003E00
003E00
003E00
003E00
003E00
003E00
003E00
003E00
003E00
003E00
003E00
003E00
003E00
003E00
003E00
000000
000000
ENDCHAR

STARTCHAR CODE174
ENCODING 174
SWIDTH 451 0
DWIDTH 24 0
BBX 24 48 0 -6
BITMAP
000000
000000
000000
000000
000000
000000
000000
000000
000000
000000
000000
000000
000000
000000
000000
003030
007070
00F0F0
01F1F0
03F3F0
07E7E0
0FCFC0
0F8F80
0F0F00
0F8F80
0FCFC0
07E7E0
03F3F0
01F1F0
00F0F0
007070
003030
000000
000000
000000
000000
000000
000000
000000
000000
000000
000000
000000
000000
000000
000000
000000
000000
ENDCHAR

STARTCHAR CODE175
ENCODING 175
SWIDTH 451 0
DWIDTH 24 0
BBX 24 48 0 -6
BITMAP
000000
000000
000000
000000
000000
000000
000000
000000
000000
000000
000000
000000
000000
000000
000000
0C0C00
0E0E00
0F0F00
0F8F80
0FCFC0
07E7E0
03F3F0
01F1F0
00F0F0
01F1F0
03F3F0
07E7E0
0FCFC0
0F8F80
0F0F00
0E0E00
0C0C00
000000
000000
000000
000000
000000
000000
000000
000000
000000
000000
000000
000000
000000
000000
000000
000000
ENDCHAR

STARTCHAR CODE176
ENCODING 176
SWIDTH 451 0
DWIDTH 24 0
BBX 24 48 0 -6
BITMAP
666666
666666
000000
000000
666666
666666
000000
000000
666666
666666
000000
000000
666666
666666
000000
000000
666666
666666
000000
000000
666666
666666
000000
000000
666666
666666
000000
000000
666666
666666
000000
000000
666666
666666
000000
000000
666666
666666
000000
000000
666666
666666
000000
000000
666666
666666
000000
000000
ENDCHAR

STARTCHAR CODE177
ENCODING 177
SWIDTH 451 0
DWIDTH 24 0
BBX 24 48 0 -6
BITMAP
30C30C
79E79E
79E79E
30C30C
000000
000000
30C30C
79E79E
79E79E
30C30C
000000
000000
30C30C
79E79E
79E79E
30C30C
000000
000000
30C30C
79E79E
79E79E
30C30C
000000
000000
30C30C
79E79E
79E79E
30C30C
000000
000000
30C30C
79E79E
79E79E
30C30C
000000
000000
30C30C
79E79E
79E79E
30C30C
000000
000000
30C30C
79E79E
79E79E
30C30C
000000
000000
ENDCHAR

STARTCHAR CODE178
ENCODING 178
SWIDTH 451 0
DWIDTH 24 0
BBX 24 48 0 -6
BITMAP
38E38E
7DF7DF
7DF7DF
7DF7DF
38E38E
000000
38E38E
7DF7DF
7DF7DF
7DF7DF
38E38E
000000
38E38E
7DF7DF
7DF7DF
7DF7DF
38E38E
000000
38E38E
7DF7DF
7DF7DF
7DF7DF
38E38E
000000
38E38E
7DF7DF
7DF7DF
7DF7DF
38E38E
000000
38E38E
7DF7DF
7DF7DF
7DF7DF
38E38E
000000
38E38E
7DF7DF
7DF7DF
7DF7DF
38E38E
000000
38E38E
7DF7DF
7DF7DF
7DF7DF
38E38E
000000
ENDCHAR

STARTCHAR CODE179
ENCODING 179
SWIDTH 451 0
DWIDTH 24 0
BBX 24 48 0 -6
BITMAP
001C00
001C00
001C00
001C00
001C00
001C00
001C00
001C00
001C00
001C00
001C00
001C00
001C00
001C00
001C00
001C00
001C00
001C00
001C00
001C00
001C00
001C00
001C00
001C00
001C00
001C00
001C00
001C00
001C00
001C00
001C00
001C00
001C00
001C00
001C00
001C00
001C00
001C00
001C00
001C00
001C00
001C00
001C00
001C00
001C00
001C00
001C00
001C00
ENDCHAR

STARTCHAR CODE180
ENCODING 180
SWIDTH 451 0
DWIDTH 24 0
BBX 24 48 0 -6
BITMAP
001C00
001C00
001C00
001C00
001C00
001C00
001C00
001C00
001C00
001C00
001C00
001C00
001C00
001C00
001C00
001C00
001C00
001C00
001C00
001C00
001C00
001C00
FFFC00
FFFC00
FFFC00
001C00
001C00
001C00
001C00
001C00
001C00
001C00
001C00
001C00
001C00
001C00
001C00
001C00
001C00
001C00
001C00
001C00
001C00
001C00
001C00
001C00
001C00
001C00
ENDCHAR

STARTCHAR CODE181
ENCODING 181
SWIDTH 451 0
DWIDTH 24 0
BBX 24 48 0 -6
BITMAP
001C00
001C00
001C00
001C00
001C00
001C00
001C00
001C00
001C00
001C00
001C00
001C00
001C00
001C00
001C00
001C00
001C00
001C00
001C00
FFFC00
FFFC00
FFFC00
001C00
001C00
001C00
FFFC00
FFFC00
FFFC00
001C00
001C00
001C00
001C00
001C00
001C00
001C00
001C00
001C00
001C00
001C00
001C00
001C00
001C00
001C00
001C00
001C00
001C00
001C00
001C00
ENDCHAR

STARTCHAR CODE182
ENCODING 182
SWIDTH 451 0
DWIDTH 24 0
BBX 24 48 0 -6
BITMAP
00E380
00E380
00E380
00E380
00E380
00E380
00E380
00E380
00E380
00E380
00E380
00E380
00E380
00E380
00E380
00E380
00E380
00E380
00E380
00E380
00E380
00E380
FFE380
FFE380
FFE380
00E380
00E380
00E380
00E380
00E380
00E380
00E380
00E380
00E380
00E380
00E380
00E380
00E380
00E380
00E380
00E380
00E380
00E380
00E380
00E380
00E380
00E380
00E380
ENDCHAR

STARTCHAR CODE183
ENCODING 183
SWIDTH 451 0
DWIDTH 24 0
BBX 24 48 0 -6
BITMAP
000000
000000
000000
000000
000000
000000
000000
000000
000000
000000
000000
000000
000000
000000
000000
000000
000000
000000
000000
000000
000000
000000
FFFF80
FFFF80
FFFF80
00E380
00E380
00E380
00E380
00E380
00E380
00E380
00E380
00E380
00E380
00E380
00E380
00E380
00E380
00E380
00E380
00E380
00E380
00E380
00E380
00E380
00E380
00E380
ENDCHAR

STARTCHAR CODE184
ENCODING 184
SWIDTH 451 0
DWIDTH 24 0
BBX 24 48 0 -6
BITMAP
000000
000000
000000
000000
000000
000000
000000
000000
000000
000000
000000
000000
000000
000000
000000
000000
000000
000000
000000
FFFC00
FFFC00
FFFC00
001C00
001C00
001C00
FFFC00
FFFC00
FFFC00
001C00
001C00
001C00
001C00
001C00
001C00
001C00
001C00
001C00
001C00
001C00
001C00
001C00
001C00
001C00
001C00
001C00
001C00
001C00
001C00
ENDCHAR

STARTCHAR CODE185
ENCODING 185
SWIDTH 451 0
DWIDTH 24 0
BBX 24 48 0 -6
BITMAP
00E380
00E380
00E380
00E380
00E380
00E380
00E380
00E380
00E380
00E380
00E380
00E380
00E380
00E380
00E380
00E380
00E380
00E380
00E380
FFE380
FFE380
FFE380
000380
000380
000380
FFE380
FFE380
FFE380
00E380
00E380
00E380
00E380
00E380
00E380
00E380
00E380
00E380
00E380
00E380
00E380
00E380
00E380
00E380
00E380
00E380
00E380
00E380
00E380
ENDCHAR

STARTCHAR CODE186
ENCODING 186
SWIDTH 451 0
DWIDTH 24 0
BBX 24 48 0 -6
BITMAP
00E380
00E380
00E380
00E380
00E380
00E380
00E380
00E380
00E380
00E380
00E380
00E380
00E380
00E380
00E380
00E380
00E380
00E380
00E380
00E380
00E380
00E380
00E380
00E380
00E380
00E380
00E380
00E380
00E380
00E380
00E380
00E380
00E380
00E380
00E380
00E380
00E380
00E380
00E380
00E380
00E380
00E380
00E380
00E380
00E380
00E380
00E380
00E380
ENDCHAR

STARTCHAR CODE187
ENCODING 187
SWIDTH 451 0
DWIDTH 24 0
BBX 24 48 0 -6
BITMAP
000000
000000
000000
000000
000000
000000
000000
000000
000000
000000
000000
000000
000000
000000
000000
000000
000000
000000
000000
FFFF80
FFFF80
FFFF80
000380
000380
000380
FFE380
FFE380
FFE380
00E380
00E380
00E380
00E380
00E380
00E380
00E380
00E380
00E380
00E380
00E380
00E380
00E380
00E380
00E380
00E380
00E380
00E380
00E380
00E380
ENDCHAR

STARTCHAR CODE188
ENCODING 188
SWIDTH 451 0
DWIDTH 24 0
BBX 24 48 0 -6
BITMAP
00E380
00E380
00E380
00E380
00E380
00E380
00E380
00E380
00E380
00E380
00E380
00E380
00E380
00E380
00E380
00E380
00E380
00E380
00E380
FFE380
FFE380
FFE380
000380
000380
000380
FFFF80
FFFF80
FFFF80
000000
000000
000000
000000
000000
000000
000000
000000
000000
000000
000000
000000
000000
000000
000000
000000
000000
000000
000000
000000
ENDCHAR

STARTCHAR CODE189
ENCODING 189
SWIDTH 451 0
DWIDTH 24 0
BBX 24 48 0 -6
BITMAP
00E380
00E380
00E380
00E380
00E380
00E380
00E380
00E380
00E380
00E380
00E380
00E380
00E380
00E380
00E380
00E380
00E380
00E380
00E380
00E380
00E380
00E380
FFFF80
FFFF80
FFFF80
000000
000000
000000
000000
000000
000000
000000
000000
000000
000000
000000
000000
000000
000000
000000
000000
000000
000000
000000
000000
000000
000000
000000
ENDCHAR

STARTCHAR CODE190
ENCODING 190
SWIDTH 451 0
DWIDTH 24 0
BBX 24 48 0 -6
BITMAP
001C00
001C00
001C00
001C00
001C00
001C00
001C00
001C00
001C00
001C00
001C00
001C00
001C00
001C00
001C00
001C00
001C00
001C00
001C00
FFFC00
FFFC00
FFFC00
001C00
001C00
001C00
FFFC00
FFFC00
FFFC00
000000
000000
000000
000000
000000
000000
000000
000000
000000
000000
000000
000000
000000
000000
000000
000000
000000
000000
000000
000000
ENDCHAR

STARTCHAR CODE191
ENCODING 191
SWIDTH 451 0
DWIDTH 24 0
BBX 24 48 0 -6
BITMAP
000000
000000
000000
000000
000000
000000
000000
000000
000000
000000
000000
000000
000000
000000
000000
000000
000000
000000
000000
000000
000000
000000
FFFC00
FFFC00
FFFC00
001C00
001C00
001C00
001C00
001C00
001C00
001C00
001C00
001C00
001C00
001C00
001C00
001C00
001C00
001C00
001C00
001C00
001C00
001C00
001C00
001C00
001C00
001C00
ENDCHAR

STARTCHAR CODE192
ENCODING 192
SWIDTH 451 0
DWIDTH 24 0
BBX 24 48 0 -6
BITMAP
001C00
001C00
001C00
001C00
001C00
001C00
001C00
001C00
001C00
001C00
001C00
001C00
001C00
001C00
001C00
001C00
001C00
001C00
001C00
001C00
001C00
001C00
001FFF
001FFF
001FFF
000000
000000
000000
000000
000000
000000
000000
000000
000000
000000
000000
000000
000000
000000
000000
000000
000000
000000
000000
000000
000000
000000
000000
ENDCHAR

STARTCHAR CODE193
ENCODING 193
SWIDTH 451 0
DWIDTH 24 0
BBX 24 48 0 -6
BITMAP
001C00
001C00
001C00
001C00
001C00
001C00
001C00
001C00
001C00
001C00
001C00
001C00
001C00
001C00
001C00
001C00
001C00
001C00
001C00
001C00
001C00
001C00
FFFFFF
FFFFFF
FFFFFF
000000
000000
000000
000000
000000
000000
000000
000000
000000
000000
000000
000000
000000
000000
000000
000000
000000
000000
000000
000000
000000
000000
000000
ENDCHAR

STARTCHAR CODE194
ENCODING 194
SWIDTH 451 0
DWIDTH 24 0
BBX 24 48 0 -6
BITMAP
000000
000000
000000
000000
000000
000000
000000
000000
000000
000000
000000
000000
000000
000000
000000
000000
000000
000000
000000
000000
000000
000000
FFFFFF
FFFFFF
FFFFFF
001C00
001C00
001C00
001C00
001C00
001C00
001C00
001C00
001C00
001C00
001C00
001C00
001C00
001C00
001C00
001C00
001C00
001C00
001C00
001C00
001C00
001C00
001C00
ENDCHAR

STARTCHAR CODE195
ENCODING 195
SWIDTH 451 0
DWIDTH 24 0
BBX 24 48 0 -6
BITMAP
001C00
001C00
001C00
001C00
001C00
001C00
001C00
001C00
001C00
001C00
001C00
001C00
001C00
001C00
001C00
001C00
001C00
001C00
001C00
001C00
001C00
001C00
001FFF
001FFF
001FFF
001C00
001C00
001C00
001C00
001C00
001C00
001C00
001C00
001C00
001C00
001C00
001C00
001C00
001C00
001C00
001C00
001C00
001C00
001C00
001C00
001C00
001C00
001C00
ENDCHAR

STARTCHAR CODE196
ENCODING 196
SWIDTH 451 0
DWIDTH 24 0
BBX 24 48 0 -6
BITMAP
000000
000000
000000
000000
000000
000000
000000
000000
000000
000000
000000
000000
000000
000000
000000
000000
000000
000000
000000
000000
000000
000000
FFFFFF
FFFFFF
FFFFFF
000000
000000
000000
000000
000000
000000
000000
000000
000000
000000
000000
000000
000000
000000
000000
000000
000000
000000
000000
000000
000000
000000
000000
ENDCHAR

STARTCHAR CODE197
ENCODING 197
SWIDTH 451 0
DWIDTH 24 0
BBX 24 48 0 -6
BITMAP
001C00
001C00
001C00
001C00
001C00
001C00
001C00
001C00
001C00
001C00
001C00
001C00
001C00
001C00
001C00
001C00
001C00
001C00
001C00
001C00
001C00
001C00
FFFFFF
FFFFFF
FFFFFF
001C00
001C00
001C00
001C00
001C00
001C00
001C00
001C00
001C00
001C00
001C00
001C00
001C00
001C00
001C00
001C00
001C00
001C00
001C00
001C00
001C00
001C00
001C00
ENDCHAR

STARTCHAR CODE198
ENCODING 198
SWIDTH 451 0
DWIDTH 24 0
BBX 24 48 0 -6
BITMAP
001C00
001C00
001C00
001C00
001C00
001C00
001C00
001C00
001C00
001C00
001C00
001C00
001C00
001C00
001C00
001C00
001C00
001C00
001C00
001FFF
001FFF
001FFF
001C00
001C00
001C00
001FFF
001FFF
001FFF
001C00
001C00
001C00
001C00
001C00
001C00
001C00
001C00
001C00
001C00
001C00
001C00
001C00
001C00
001C00
001C00
001C00
001C00
001C00
001C00
ENDCHAR

STARTCHAR CODE199
ENCODING 199
SWIDTH 451 0
DWIDTH 24 0
BBX 24 48 0 -6
BITMAP
00E380
00E380
00E380
00E380
00E380
00E380
00E380
00E380
00E380
00E380
00E380
00E380
00E380
00E380
00E380
00E380
00E380
00E380
00E380
00E380
00E380
00E380
00E3FF
00E3FF
00E3FF
00E380
00E380
00E380
00E380
00E380
00E380
00E380
00E380
00E380
00E380
00E380
00E380
00E380
00E380
00E380
00E380
00E380
00E380
00E380
00E380
00E380
00E380
00E380
ENDCHAR

STARTCHAR CODE200
ENCODING 200
SWIDTH 451 0
DWIDTH 24 0
BBX 24 48 0 -6
BITMAP
00E380
00E380
00E380
00E380
00E380
00E380
00E380
00E380
00E380
00E380
00E380
00E380
00E380
00E380
00E380
00E380
00E380
00E380
00E380
00E3FF
00E3FF
00E3FF
00E000
00E000
00E000
00FFFF
00FFFF
00FFFF
000000
000000
000000
000000
000000
000000
000000
000000
000000
000000
000000
000000
000000
000000
000000
000000
000000
000000
000000
000000
ENDCHAR

STARTCHAR CODE201
ENCODING 201
SWIDTH 451 0
DWIDTH 24 0
BBX 24 48 0 -6
BITMAP
000000
000000
000000
000000
000000
000000
000000
000000
000000
000000
000000
000000
000000
000000
000000
000000
000000
000000
000000
00FFFF
00FFFF
00FFFF
00E000
00E000
00E000
00E3FF
00E3FF
00E3FF
00E380
00E380
00E380
00E380
00E380
00E380
00E380
00E380
00E380
00E380
00E380
00E380
00E380
00E380
00E380
00E380
00E380
00E380
00E380
00E380
ENDCHAR

STARTCHAR CODE202
ENCODING 202
SWIDTH 451 0
DWIDTH 24 0
BBX 24 48 0 -6
BITMAP
00E380
00E380
00E380
00E380
00E380
00E380
00E380
00E380
00E380
00E380
00E380
00E380
00E380
00E380
00E380
00E380
00E380
00E380
00E380
FFE3FF
FFE3FF
FFE3FF
000000
000000
000000
FFFFFF
FFFFFF
FFFFFF
000000
000000
000000
000000
000000
000000
000000
000000
000000
000000
000000
000000
000000
000000
000000
000000
000000
000000
000000
000000
ENDCHAR

STARTCHAR CODE203
ENCODING 203
SWIDTH 451 0
DWIDTH 24 0
BBX 24 48 0 -6
BITMAP
000000
000000
000000
000000
000000
000000
000000
000000
000000
000000
000000
000000
000000
000000
000000
000000
000000
000000
000000
FFFFFF
FFFFFF
FFFFFF
000000
000000
000000
FFE3FF
FFE3FF
FFE3FF
00E380
00E380
00E380
00E380
00E380
00E380
00E380
00E380
00E380
00E380
00E380
00E380
00E380
00E380
00E380
00E380
00E380
00E380
00E380
00E380
ENDCHAR

STARTCHAR CODE204
ENCODING 204
SWIDTH 451 0
DWIDTH 24 0
BBX 24 48 0 -6
BITMAP
00E380
00E380
00E380
00E380
00E380
00E380
00E380
00E380
00E380
00E380
00E380
00E380
00E380
00E380
00E380
00E380
00E380
00E380
00E380
00E3FF
00E3FF
00E3FF
00E000
00E000
00E000
00E3FF
00E3FF
00E3FF
00E380
00E380
00E380
00E380
00E380
00E380
00E380
00E380
00E380
00E380
00E380
00E380
00E380
00E380
00E380
00E380
00E380
00E380
00E380
00E380
ENDCHAR

STARTCHAR CODE205
ENCODING 205
SWIDTH 451 0
DWIDTH 24 0
BBX 24 48 0 -6
BITMAP
000000
000000
000000
000000
000000
000000
000000
000000
000000
000000
000000
000000
000000
000000
000000
000000
000000
000000
000000
FFFFFF
FFFFFF
FFFFFF
000000
000000
000000
FFFFFF
FFFFFF
FFFFFF
000000
000000
000000
000000
000000
000000
000000
000000
000000
000000
000000
000000
000000
000000
000000
000000
000000
000000
000000
000000
ENDCHAR

STARTCHAR CODE206
ENCODING 206
SWIDTH 451 0
DWIDTH 24 0
BBX 24 48 0 -6
BITMAP
00E380
00E380
00E380
00E380
00E380
00E380
00E380
00E380
00E380
00E380
00E380
00E380
00E380
00E380
00E380
00E380
00E380
00E380
00E380
FFE3FF
FFE3FF
FFE3FF
000000
000000
000000
FFE3FF
FFE3FF
FFE3FF
00E380
00E380
00E380
00E380
00E380
00E380
00E380
00E380
00E380
00E380
00E380
00E380
00E380
00E380
00E380
00E380
00E380
00E380
00E380
00E380
ENDCHAR

STARTCHAR CODE207
ENCODING 207
SWIDTH 451 0
DWIDTH 24 0
BBX 24 48 0 -6
BITMAP
001C00
001C00
001C00
001C00
001C00
001C00
001C00
001C00
001C00
001C00
001C00
001C00
001C00
001C00
001C00
001C00
001C00
001C00
001C00
FFFFFF
FFFFFF
FFFFFF
000000
000000
000000
FFFFFF
FFFFFF
FFFFFF
000000
000000
000000
000000
000000
000000
000000
000000
000000
000000
000000
000000
000000
000000
000000
000000
000000
000000
000000
000000
ENDCHAR

STARTCHAR CODE208
ENCODING 208
SWIDTH 451 0
DWIDTH 24 0
BBX 24 48 0 -6
BITMAP
00E380
00E380
00E380
00E380
00E380
00E380
00E380
00E380
00E380
00E380
00E380
00E380
00E380
00E380
00E380
00E380
00E380
00E380
00E380
00E380
00E380
00E380
FFFFFF
FFFFFF
FFFFFF
000000
000000
000000
000000
000000
000000
000000
000000
000000
000000
000000
000000
000000
000000
000000
000000
000000
000000
000000
000000
000000
000000
000000
ENDCHAR

STARTCHAR CODE209
ENCODING 209
SWIDTH 451 0
DWIDTH 24 0
BBX 24 48 0 -6
BITMAP
000000
000000
000000
000000
000000
000000
000000
000000
000000
000000
000000
000000
000000
000000
000000
000000
000000
000000
000000
FFFFFF
FFFFFF
FFFFFF
000000
000000
000000
FFFFFF
FFFFFF
FFFFFF
001C00
001C00
001C00
001C00
001C00
001C00
001C00
001C00
001C00
001C00
001C00
001C00
001C00
001C00
001C00
001C00
001C00
001C00
001C00
001C00
ENDCHAR

STARTCHAR CODE210
ENCODING 210
SWIDTH 451 0
DWIDTH 24 0
BBX 24 48 0 -6
BITMAP
000000
000000
000000
000000
000000
000000
000000
000000
000000
000000
000000
000000
000000
000000
000000
000000
000000
000000
000000
000000
000000
000000
FFFFFF
FFFFFF
FFFFFF
00E380
00E380
00E380
00E380
00E380
00E380
00E380
00E380
00E380
00E380
00E380
00E380
00E380
00E380
00E380
00E380
00E380
00E380
00E380
00E380
00E380
00E380
00E380
ENDCHAR

STARTCHAR CODE211
ENCODING 211
SWIDTH 451 0
DWIDTH 24 0
BBX 24 48 0 -6
BITMAP
00E380
00E380
00E380
00E380
00E380
00E380
00E380
00E380
00E380
00E380
00E380
00E380
00E380
00E380
00E380
00E380
00E380
00E380
00E380
00E380
00E380
00E380
00FFFF
00FFFF
00FFFF
000000
000000
000000
000000
000000
000000
000000
000000
000000
000000
000000
000000
000000
000000
000000
000000
000000
000000
000000
000000
000000
000000
000000
ENDCHAR

STARTCHAR CODE212
ENCODING 212
SWIDTH 451 0
DWIDTH 24 0
BBX 24 48 0 -6
BITMAP
001C00
001C00
001C00
001C00
001C00
001C00
001C00
001C00
001C00
001C00
001C00
001C00
001C00
001C00
001C00
001C00
001C00
001C00
001C00
001FFF
001FFF
001FFF
001C00
001C00
001C00
001FFF
001FFF
001FFF
000000
000000
000000
000000
000000
000000
000000
000000
000000
000000
000000
000000
000000
000000
000000
000000
000000
000000
000000
000000
ENDCHAR

STARTCHAR CODE213
ENCODING 213
SWIDTH 451 0
DWIDTH 24 0
BBX 24 48 0 -6
BITMAP
000000
000000
000000
000000
000000
000000
000000
000000
000000
000000
000000
000000
000000
000000
000000
000000
000000
000000
000000
001FFF
001FFF
001FFF
001C00
001C00
001C00
001FFF
001FFF
001FFF
001C00
001C00
001C00
001C00
001C00
001C00
001C00
001C00
001C00
001C00
001C00
001C00
001C00
001C00
001C00
001C00
001C00
001C00
001C00
001C00
ENDCHAR

STARTCHAR CODE214
ENCODING 214
SWIDTH 451 0
DWIDTH 24 0
BBX 24 48 0 -6
BITMAP
000000
000000
000000
000000
000000
000000
000000
000000
000000
000000
000000
000000
000000
000000
000000
000000
000000
000000
000000
000000
000000
000000
00FFFF
00FFFF
00FFFF
00E380
00E380
00E380
00E380
00E380
00E380
00E380
00E380
00E380
00E380
00E380
00E380
00E380
00E380
00E380
00E380
00E380
00E380
00E380
00E380
00E380
00E380
00E380
ENDCHAR

STARTCHAR CODE215
ENCODING 215
SWIDTH 451 0
DWIDTH 24 0
BBX 24 48 0 -6
BITMAP
00E380
00E380
00E380
00E380
00E380
00E380
00E380
00E380
00E380
00E380
00E380
00E380
00E380
00E380
00E380
00E380
00E380
00E380
00E380
00E380
00E380
00E380
FFFFFF
FFFFFF
FFFFFF
00E380
00E380
00E380
00E380
00E380
00E380
00E380
00E380
00E380
00E380
00E380
00E380
00E380
00E380
00E380
00E380
00E380
00E380
00E380
00E380
00E380
00E380
00E380
ENDCHAR

STARTCHAR CODE216
ENCODING 216
SWIDTH 451 0
DWIDTH 24 0
BBX 24 48 0 -6
BITMAP
001C00
001C00
001C00
001C00
001C00
001C00
001C00
001C00
001C00
001C00
001C00
001C00
001C00
001C00
001C00
001C00
001C00
001C00
001C00
FFFFFF
FFFFFF
FFFFFF
001C00
001C00
001C00
FFFFFF
FFFFFF
FFFFFF
001C00
001C00
001C00
001C00
001C00
001C00
001C00
001C00
001C00
001C00
001C00
001C00
001C00
001C00
001C00
001C00
001C00
001C00
001C00
001C00
ENDCHAR

STARTCHAR CODE217
ENCODING 217
SWIDTH 451 0
DWIDTH 24 0
BBX 24 48 0 -6
BITMAP
001C00
001C00
001C00
001C00
001C00
001C00
001C00
001C00
001C00
001C00
001C00
001C00
001C00
001C00
001C00
001C00
001C00
001C00
001C00
001C00
001C00
001C00
FFFC00
FFFC00
FFFC00
000000
000000
000000
000000
000000
000000
000000
000000
000000
000000
000000
000000
000000
000000
000000
000000
000000
000000
000000
000000
000000
000000
000000
ENDCHAR

STARTCHAR CODE218
ENCODING 218
SWIDTH 451 0
DWIDTH 24 0
BBX 24 48 0 -6
BITMAP
000000
000000
000000
000000
000000
000000
000000
000000
000000
000000
000000
000000
000000
000000
000000
000000
000000
000000
000000
000000
000000
000000
001FFF
001FFF
001FFF
001C00
001C00
001C00
001C00
001C00
001C00
001C00
001C00
001C00
001C00
001C00
001C00
001C00
001C00
001C00
001C00
001C00
001C00
001C00
001C00
001C00
001C00
001C00
ENDCHAR

STARTCHAR CODE219
ENCODING 219
SWIDTH 451 0
DWIDTH 24 0
BBX 24 48 0 -6
BITMAP
FFFFFF
FFFFFF
FFFFFF
FFFFFF
FFFFFF
FFFFFF
FFFFFF
FFFFFF
FFFFFF
FFFFFF
FFFFFF
FFFFFF
FFFFFF
FFFFFF
FFFFFF
FFFFFF
FFFFFF
FFFFFF
FFFFFF
FFFFFF
FFFFFF
FFFFFF
FFFFFF
FFFFFF
FFFFFF
FFFFFF
FFFFFF
FFFFFF
FFFFFF
FFFFFF
FFFFFF
FFFFFF
FFFFFF
FFFFFF
FFFFFF
FFFFFF
FFFFFF
FFFFFF
FFFFFF
FFFFFF
FFFFFF
FFFFFF
FFFFFF
FFFFFF
FFFFFF
FFFFFF
FFFFFF
FFFFFF
ENDCHAR

STARTCHAR CODE220
ENCODING 220
SWIDTH 451 0
DWIDTH 24 0
BBX 24 48 0 -6
BITMAP
000000
000000
000000
000000
000000
000000
000000
000000
000000
000000
000000
000000
000000
000000
000000
000000
000000
000000
000000
000000
000000
000000
000000
FFFFFF
FFFFFF
FFFFFF
FFFFFF
FFFFFF
FFFFFF
FFFFFF
FFFFFF
FFFFFF
FFFFFF
FFFFFF
FFFFFF
FFFFFF
FFFFFF
FFFFFF
FFFFFF
FFFFFF
FFFFFF
FFFFFF
FFFFFF
FFFFFF
FFFFFF
FFFFFF
FFFFFF
FFFFFF
ENDCHAR

STARTCHAR CODE221
ENCODING 221
SWIDTH 451 0
DWIDTH 24 0
BBX 24 48 0 -6
BITMAP
FFF800
FFF800
FFF800
FFF800
FFF800
FFF800
FFF800
FFF800
FFF800
FFF800
FFF800
FFF800
FFF800
FFF800
FFF800
FFF800
FFF800
FFF800
FFF800
FFF800
FFF800
FFF800
FFF800
FFF800
FFF800
FFF800
FFF800
FFF800
FFF800
FFF800
FFF800
FFF800
FFF800
FFF800
FFF800
FFF800
FFF800
FFF800
FFF800
FFF800
FFF800
FFF800
FFF800
FFF800
FFF800
FFF800
FFF800
FFF800
ENDCHAR

STARTCHAR CODE222
ENCODING 222
SWIDTH 451 0
DWIDTH 24 0
BBX 24 48 0 -6
BITMAP
000FFF
000FFF
000FFF
000FFF
000FFF
000FFF
000FFF
000FFF
000FFF
000FFF
000FFF
000FFF
000FFF
000FFF
000FFF
000FFF
000FFF
000FFF
000FFF
000FFF
000FFF
000FFF
000FFF
000FFF
000FFF
000FFF
000FFF
000FFF
000FFF
000FFF
000FFF
000FFF
000FFF
000FFF
000FFF
000FFF
000FFF
000FFF
000FFF
000FFF
000FFF
000FFF
000FFF
000FFF
000FFF
000FFF
000FFF
000FFF
ENDCHAR

STARTCHAR CODE223
ENCODING 223
SWIDTH 451 0
DWIDTH 24 0
BBX 24 48 0 -6
BITMAP
FFFFFF
FFFFFF
FFFFFF
FFFFFF
FFFFFF
FFFFFF
FFFFFF
FFFFFF
FFFFFF
FFFFFF
FFFFFF
FFFFFF
FFFFFF
FFFFFF
FFFFFF
FFFFFF
FFFFFF
FFFFFF
FFFFFF
FFFFFF
FFFFFF
FFFFFF
FFFFFF
FFFFFF
000000
000000
000000
000000
000000
000000
000000
000000
000000
000000
000000
000000
000000
000000
000000
000000
000000
000000
000000
000000
000000
000000
000000
000000
ENDCHAR

STARTCHAR CODE224
ENCODING 224
SWIDTH 451 0
DWIDTH 24 0
BBX 24 48 0 -6
BITMAP
000000
000000
000000
000000
000000
000000
000000
000000
000000
000000
000000
000000
000000
000000
00F800
03FE1E
07FF1E
0FFF9E
0F8FBE
1F07FC
1F03FC
1E03FC
3E03F8
3E01F8
3C01F8
3C01F0
3C01F0
3C01F0
3C01E0
3C01E0
3E03E0
3E03C0
3E03CE
1F07EE
1F8FFE
0FFFFE
07FFFE
03FEFC
00F878
000000
000000
000000
000000
000000
000000
000000
000000
000000
ENDCHAR

STARTCHAR CODE225
ENCODING 225
SWIDTH 451 0
DWIDTH 24 0
BBX 24 48 0 -6
BITMAP
000000
000000
000000
007E00
01FF80
03FFC0
07FFE0
0FC7E0
0F81F0
1F01F0
1F00F0
1F00F0
1E00F0
3E00F0
3E00F0
3E01F0
3C01E0
3C03E0
3C3FC0
3C3FC0
3C3FE0
3C3FF0
3C03F8
3C00F8
3C007C
3C007C
3C003C
3C003C
3C003C
3C003C
3C003C
3E007C
3F007C
3F80F8
3FE3F8
3FFFF0
3FFFE0
3CFFC0
3C3F00
3C0000
3C0000
3C0000
3C0000
3C0000
000000
000000
000000
000000
ENDCHAR

STARTCHAR CODE226
ENCODING 226
SWIDTH 451 0
DWIDTH 24 0
BBX 24 48 0 -6
BITMAP
000000
000000
000000
000000
1FFFFE
1FFFFE
1FFFFE
1FFFFE
1E0000
1E0000
1E0000
1E0000
1E0000
1E0000
1E0000
1E0000
1E0000
1E0000
1E0000
1E0000
1E0000
1E0000
1E0000
1E0000
1E0000
1E0000
1E0000
1E0000
1E0000
1E0000
1E0000
1E0000
1E0000
1E0000
1E0000
1E0000
1E0000
1E0000
000000
000000
000000
000000
000000
000000
000000
000000
000000
000000
ENDCHAR

STARTCHAR CODE227
ENCODING 227
SWIDTH 451 0
DWIDTH 24 0
BBX 24 48 0 -6
BITMAP
000000
000000
000000
000000
000000
000000
000000
000000
000000
000000
000000
000000
000000
000000
000000
000000
000000
000000
1FFFF8
1FFFF8
1FFFF8
1FFFF8
03C780
03C780
03C780
03C780
03C780
03C780
03C780
03C780
03C780
03C780
03C780
03C780
03C7C0
03C7FC
03C3FC
03C3FC
03C0FC
000000
000000
000000
000000
000000
000000
000000
000000
000000
ENDCHAR

STARTCHAR CODE228
ENCODING 228
SWIDTH 451 0
DWIDTH 24 0
BBX 24 48 0 -6
BITMAP
000000
000000
000000
000000
1FFFF8
1FFFF8
1FFFF8
1FFFF8
1F0000
0F8000
0F8000
07C000
03E000
03E000
01F000
00F800
00F800
007C00
003E00
003E00
001F00
000F00
001F00
003E00
003E00
007C00
00F800
00F800
01F000
03E000
03E000
07C000
0F8000
0F8000
1F0000
1FFFF8
1FFFF8
1FFFF8
1FFFF8
000000
000000
000000
000000
000000
000000
000000
000000
000000
ENDCHAR

STARTCHAR CODE229
ENCODING 229
SWIDTH 451 0
DWIDTH 24 0
BBX 24 48 0 -6
BITMAP
000000
000000
000000
000000
000000
000000
000000
000000
000000
000000
00003E
0001FE
000FFE
003FFE
007FC0
00FE00
01F800
03FE00
07FF80
07FFC0
0FCFE0
0F03E0
1F01F0
1E01F0
1E00F0
1E00F0
1E00F0
1E00F0
1E00F0
1E00F0
1E00F0
1F01F0
0F01E0
0F83E0
0FC7E0
07FFC0
07FFC0
03FF80
00FE00
000000
000000
000000
000000
000000
000000
000000
000000
000000
ENDCHAR

STARTCHAR CODE230
ENCODING 230
SWIDTH 451 0
DWIDTH 24 0
BBX 24 48 0 -6
BITMAP
000000
000000
000000
000000
000000
000000
000000
000000
000000
000000
000000
000000
000000
000000
000000
1E0780
1E0780
1E0780
1E0780
1E0780
1E0780
1E0780
1E0780
1E0780
1E0780
1E0780
1E0780
1E0780
1E0780
1E0780
1E0780
1F0FC0
1F0FC0
1F9FE0
1FFFF8
1FFFF8
1FFCF8
1EF878
1E0000
1E0000
1E0000
1E0000
1E0000
1E0000
000000
000000
000000
000000
ENDCHAR

STARTCHAR CODE231
ENCODING 231
SWIDTH 451 0
DWIDTH 24 0
BBX 24 48 0 -6
BITMAP
000000
000000
000000
000000
000000
000000
000000
000000
000000
000000
000000
000000
000000
000000
000000
000000
000000
0FFFF0
0FFFF0
0FFFF0
0FFFF0
007800
007800
007800
007800
007800
007800
007800
007800
007800
007800
007800
007800
007800
007CC0
007FC0
007FC0
003FC0
001F80
000000
000000
000000
000000
000000
000000
000000
000000
000000
ENDCHAR

STARTCHAR CODE232
ENCODING 232
SWIDTH 451 0
DWIDTH 24 0
BBX 24 48 0 -6
BITMAP
000000
000000
000000
000000
003C00
003C00
003C00
01FF80
07FFE0
0FFFF0
1FFFF8
1FBDF8
3E3C7C
3C3C3C
7C3C3E
783C1E
783C1E
783C1E
783C1E
783C1E
783C1E
783C1E
783C1E
783C1E
783C1E
783C1E
7C3C3E
3C3C3C
3E3C7C
1FBDF8
1FFFF8
0FFFF0
07FFE0
01FF80
003C00
003C00
003C00
003C00
003C00
000000
000000
000000
000000
000000
000000
000000
000000
000000
ENDCHAR

STARTCHAR CODE233
ENCODING 233
SWIDTH 451 0
DWIDTH 24 0
BBX 24 48 0 -6
BITMAP
000000
000000
000000
007E00
01FF80
03FFC0
07FFE0
0FE7F0
0F81F0
1F00F8
1F00F8
1E0078
3E007C
3E007C
3C003C
3C003C
3C003C
3C003C
3C003C
3FFFFC
3FFFFC
3FFFFC
3FFFFC
3C003C
3C003C
3C003C
3C003C
3C003C
3E007C
3E007C
1E0078
1F00F8
1F00F8
0F81F0
0FE7F0
07FFE0
03FFC0
01FF80
007E00
000000
000000
000000
000000
000000
000000
000000
000000
000000
ENDCHAR

STARTCHAR CODE234
ENCODING 234
SWIDTH 451 0
DWIDTH 24 0
BBX 24 48 0 -6
BITMAP
000000
000000
000000
000000
00FF00
03FFC0
07FFE0
0FFFF0
1FC3F8
3F00FC
3E007C
7C003E
7C003E
78001E
78001E
78001E
78001E
78001E
78001E
78001E
7C003E
7C003E
3E007C
3E007C
1F00F8
1F81F8
0FC3F0
07C3E0
03E7C0
03E7C0
01E780
01E780
01E780
01E780
3FE7FC
3FE7FC
3FE7FC
3FE7FC
000000
000000
000000
000000
000000
000000
000000
000000
000000
000000
ENDCHAR

STARTCHAR CODE235
ENCODING 235
SWIDTH 451 0
DWIDTH 24 0
BBX 24 48 0 -6
BITMAP
000000
000000
000000
000000
000F80
003FE0
007FF0
00FFF8
00F8F8
01F078
01E030
01E000
01F000
01F000
00F800
00FC00
007C00
003E00
00FE00
03FF00
07FF00
0FFF80
0FCF80
1F07C0
1F07C0
1E03C0
1E03C0
1E03C0
1E03C0
1E03C0
1E03C0
1E03C0
1F07C0
1F07C0
0F8F80
0FFF80
07FF00
03FE00
00F800
000000
000000
000000
000000
000000
000000
000000
000000
000000
ENDCHAR

STARTCHAR CODE236
ENCODING 236
SWIDTH 451 0
DWIDTH 24 0
BBX 24 48 0 -6
BITMAP
000000
000000
000000
000000
000000
000000
000000
000000
000000
000000
000000
000000
0781E0
1FC3F8
3FE7FC
3FFFFC
7CFF3E
787E1E
F87E1F
F03C0F
F03C0F
F03C0F
F03C0F
F03C0F
F87E1F
787E1E
7CFF3E
3FFFFC
3FE7FC
1FC3F8
0781E0
000000
000000
000000
000000
000000
000000
000000
000000
000000
000000
000000
000000
000000
000000
000000
000000
000000
ENDCHAR

STARTCHAR CODE237
ENCODING 237
SWIDTH 451 0
DWIDTH 24 0
BBX 24 48 0 -6
BITMAP
000000
000000
000000
000000
000000
000000
000000
000000
000000
000380
000380
000380
000780
000780
000780
007F00
01FF80
03FFC0
07FFE0
07EFE0
0F8FF0
0F0EF0
1F1EF8
1E1E78
1E1E78
1E1C78
1E3C78
1E3C78
1E3C78
1E3878
1E3878
1F78F8
0F78F0
0FF9F0
07F3E0
07FFE0
03FFC0
01FF80
00FF00
01FC00
01E000
01E000
01C000
01C000
01C000
000000
000000
000000
ENDCHAR

STARTCHAR CODE238
ENCODING 238
SWIDTH 451 0
DWIDTH 24 0
BBX 24 48 0 -6
BITMAP
000000
000000
000000
000000
000000
000000
000000
000000
000000
000000
000000
000000
000000
000000
000000
01FC00
07FF00
0FFFC0
0FFFE0
1FC3F0
1F00F0
1E0060
1F0000
1FC000
0FFE00
0FFE00
0FFE00
1FFE00
1F8000
3E0000
3C0000
3C0018
3E003C
3F007C
1FC1F8
1FFFF0
0FFFE0
07FF80
01FE00
000000
000000
000000
000000
000000
000000
000000
000000
000000
ENDCHAR

STARTCHAR CODE239
ENCODING 239
SWIDTH 451 0
DWIDTH 24 0
BBX 24 48 0 -6
BITMAP
000000
000000
000000
000000
000000
007E00
01FF80
03FFC0
07C3E0
0F00F0
0E00F0
0E0070
1C0078
1C0038
1C0038
1C0038
1C0038
1C0038
1C0038
1C0038
1C0038
1C0038
1C0038
1C0038
1C0038
1C0038
1C0038
1C0038
1C0038
1C0038
1C0038
1C0038
1C0038
1C0038
1C0038
1C0038
1C0038
1C0038
1C0038
1C0038
1C0038
000000
000000
000000
000000
000000
000000
000000
ENDCHAR

STARTCHAR CODE240
ENCODING 240
SWIDTH 451 0
DWIDTH 24 0
BBX 24 48 0 -6
BITMAP
000000
000000
000000
000000
000000
000000
000000
000000
000000
000000
000000
000000
000000
000000
3FFFFC
3FFFFC
3FFFFC
000000
000000
000000
000000
000000
3FFFFC
3FFFFC
000000
000000
000000
000000
000000
000000
3FFFFC
3FFFFC
000000
000000
000000
000000
000000
000000
000000
000000
000000
000000
000000
000000
000000
000000
000000
000000
ENDCHAR

STARTCHAR CODE241
ENCODING 241
SWIDTH 451 0
DWIDTH 24 0
BBX 24 48 0 -6
BITMAP
000000
000000
000000
001800
001800
001800
001800
001800
001800
001800
001800
001800
001800
001800
001800
3FFFFC
3FFFFC
3FFFFC
001800
001800
001800
001800
001800
001800
001800
001800
001800
001800
001800
001800
000000
000000
3FFFFC
3FFFFC
3FFFFC
000000
000000
000000
000000
000000
000000
000000
000000
000000
000000
000000
000000
000000
ENDCHAR

STARTCHAR CODE242
ENCODING 242
SWIDTH 451 0
DWIDTH 24 0
BBX 24 48 0 -6
BITMAP
000000
000000
000000
000000
000000
000000
180000
3C0000
3E0000
0F8000
07C000
03F000
00F800
007C00
001F00
000F80
0007E0
0001F0
0000F8
00007C
0001FC
0003E0
000FC0
001F00
007E00
00F800
03F000
07C000
1F8000
3E0000
3C0000
180000
000000
3FFFFC
3FFFFC
000000
000000
000000
000000
000000
000000
000000
000000
000000
000000
000000
000000
000000
ENDCHAR

STARTCHAR CODE243
ENCODING 243
SWIDTH 451 0
DWIDTH 24 0
BBX 24 48 0 -6
BITMAP
000000
000000
000000
000000
000000
000000
00000C
00003C
00007C
0001F8
0003E0
0007C0
001F00
003E00
00FC00
01F000
07E000
0F8000
3F0000
3C0000
3F0000
0FC000
07E000
01F800
007E00
003F00
000FC0
0003E0
0001F8
00007C
00003C
00000C
000000
3FFFF8
3FFFF8
000000
000000
000000
000000
000000
000000
000000
000000
000000
000000
000000
000000
000000
ENDCHAR

STARTCHAR CODE244
ENCODING 244
SWIDTH 451 0
DWIDTH 24 0
BBX 24 48 0 -6
BITMAP
000000
000000
000000
000000
000000
000000
000000
007C00
007C00
00FC00
00FC00
00FC00
00C000
00C000
00C000
00C000
00C000
01C000
01C000
01C000
00C000
00C000
00C000
00C000
00E000
00E000
00E000
00E000
00E000
00E000
00E000
00E000
00E000
00F000
00F000
00F000
007000
007000
007000
007000
007000
007000
007800
007800
007800
007800
003800
003800
ENDCHAR

STARTCHAR CODE245
ENCODING 245
SWIDTH 451 0
DWIDTH 24 0
BBX 24 48 0 -6
BITMAP
003800
003800
003800
003800
003800
003800
003C00
003C00
001C00
001C00
001C00
001C00
001C00
001C00
001C00
001C00
001C00
000C00
000E00
000E00
000E00
000E00
000E00
000E00
000E00
000E00
000E00
000600
000600
000600
000600
000600
000600
007600
00F600
00FE00
00FC00
007800
000000
000000
000000
000000
000000
000000
000000
000000
000000
000000
ENDCHAR

STARTCHAR CODE246
ENCODING 246
SWIDTH 451 0
DWIDTH 24 0
BBX 24 48 0 -6
BITMAP
000000
000000
000000
000000
000000
000000
000000
000000
000000
003C00
003C00
003C00
003C00
003C00
000000
000000
000000
000000
000000
000000
000000
000000
3FFFFC
3FFFFC
000000
000000
000000
000000
000000
000000
000000
001800
003C00
003C00
003C00
003C00
001800
000000
000000
000000
000000
000000
000000
000000
000000
000000
000000
000000
ENDCHAR

STARTCHAR CODE247
ENCODING 247
SWIDTH 451 0
DWIDTH 24 0
BBX 24 48 0 -6
BITMAP
000000
000000
000000
000000
000000
000000
000000
000000
000000
000000
000000
000000
000000
000000
07C000
0FE000
1FF00C
1CF81C
383C3C
301E78
300FF0
0007F0
0003C0
038000
07E000
0FF00C
1FF80C
3C781C
383E38
301FF8
000FF0
0007E0
000000
000000
000000
000000
000000
000000
000000
000000
000000
000000
000000
000000
000000
000000
000000
000000
ENDCHAR

STARTCHAR CODE248
ENCODING 248
SWIDTH 451 0
DWIDTH 24 0
BBX 24 48 0 -6
BITMAP
000000
000000
00FF00
01FF80
03C380
0381C0
0300C0
0300C0
0300C0
0300C0
0381C0
01C380
00FF00
007E00
000000
000000
000000
000000
000000
000000
000000
000000
000000
000000
000000
000000
000000
000000
000000
000000
000000
000000
000000
000000
000000
000000
000000
000000
000000
000000
000000
000000
000000
000000
000000
000000
000000
000000
ENDCHAR

STARTCHAR CODE249
ENCODING 249
SWIDTH 451 0
DWIDTH 24 0
BBX 24 48 0 -6
BITMAP
000000
000000
000000
000000
000000
000000
000000
000000
000000
000000
000000
000000
000000
000000
000000
000000
000000
007E00
00FF00
01FF80
03FFC0
03FFC0
03FFC0
03FFC0
03FFC0
03FFC0
01FF80
00FF00
007E00
000000
000000
000000
000000
000000
000000
000000
000000
000000
000000
000000
000000
000000
000000
000000
000000
000000
000000
000000
ENDCHAR

STARTCHAR CODE250
ENCODING 250
SWIDTH 451 0
DWIDTH 24 0
BBX 24 48 0 -6
BITMAP
000000
000000
000000
000000
000000
000000
000000
000000
000000
000000
000000
000000
000000
000000
000000
000000
000000
000000
007E00
00FF00
01FF80
01FF80
01FF80
01FF80
01FF80
01FF80
00FF00
007E00
000000
000000
000000
000000
000000
000000
000000
000000
000000
000000
000000
000000
000000
000000
000000
000000
000000
000000
000000
000000
ENDCHAR

STARTCHAR CODE251
ENCODING 251
SWIDTH 451 0
DWIDTH 24 0
BBX 24 48 0 -6
BITMAP
000FFF
000FFF
000E00
000C00
001C00
001C00
001C00
001C00
001C00
003800
003800
003800
003800
003800
007000
007000
007000
007000
007000
006000
00E000
00E000
00E000
00E000
00C000
19C000
39C000
39C000
79C000
798000
FF8000
FF8000
7F8000
1F8000
0F8000
0F0000
0F0000
0F0000
070000
070000
060000
070000
030000
000000
000000
000000
000000
000000
ENDCHAR

STARTCHAR CODE252
ENCODING 252
SWIDTH 451 0
DWIDTH 24 0
BBX 24 48 0 -6
BITMAP
000000
000000
000000
01DE00
01FF00
01FF80
01F780
01E380
01C380
01C380
01C380
01C380
01C380
01C380
01C380
01C380
01C380
01C380
01C380
01C380
000000
000000
000000
000000
000000
000000
000000
000000
000000
000000
000000
000000
000000
000000
000000
000000
000000
000000
000000
000000
000000
000000
000000
000000
000000
000000
000000
000000
ENDCHAR

STARTCHAR CODE253
ENCODING 253
SWIDTH 451 0
DWIDTH 24 0
BBX 24 48 0 -6
BITMAP
000000
000000
007E00
00FF00
00FF80
01E780
01C380
01C380
01C780
000780
000F00
001F00
003E00
007C00
00F800
01F000
01FF80
01FF80
01FF80
000000
000000
000000
000000
000000
000000
000000
000000
000000
000000
000000
000000
000000
000000
000000
000000
000000
000000
000000
000000
000000
000000
000000
000000
000000
000000
000000
000000
000000
ENDCHAR

STARTCHAR CODE254
ENCODING 254
SWIDTH 451 0
DWIDTH 24 0
BBX 24 48 0 -6
BITMAP
000000
000000
000000
000000
000000
000000
000000
000000
03FFC0
03FFC0
03FFC0
03FFC0
03FFC0
03FFC0
03FFC0
03FFC0
03FFC0
03FFC0
03FFC0
03FFC0
03FFC0
03FFC0
03FFC0
03FFC0
03FFC0
03FFC0
03FFC0
03FFC0
03FFC0
03FFC0
03FFC0
03FFC0
03FFC0
03FFC0
03FFC0
03FFC0
03FFC0
03FFC0
03FFC0
000000
000000
000000
000000
000000
000000
000000
000000
000000
ENDCHAR

STARTCHAR CODE255
ENCODING 255
SWIDTH 451 0
DWIDTH 24 0
BBX 24 48 0 -6
BITMAP
000000
000000
000000
000000
000000
000000
000000
000000
000000
000000
000000
000000
000000
000000
000000
000000
000000
000000
000000
000000
000000
000000
000000
000000
000000
000000
000000
000000
000000
000000
000000
000000
000000
000000
000000
000000
000000
000000
000000
000000
000000
000000
000000
000000
000000
000000
000000
000000
ENDCHAR
ENDFONT
